G75*
%MOIN*%
%OFA0B0*%
%FSLAX25Y25*%
%IPPOS*%
%LPD*%
%AMOC8*
5,1,8,0,0,1.08239X$1,22.5*
%
%ADD10R,0.07400X0.07400*%
%ADD11C,0.07400*%
%ADD12OC8,0.06000*%
%ADD13C,0.20000*%
%ADD14R,0.05906X0.05118*%
%ADD15C,0.01600*%
%ADD16C,0.05000*%
D10*
X0110300Y0060950D03*
X0110300Y0105950D03*
X0100300Y0145950D03*
X0100300Y0185950D03*
X0185300Y0190950D03*
X0245300Y0170950D03*
D11*
X0235300Y0170950D03*
X0225300Y0170950D03*
X0215300Y0170950D03*
X0215300Y0150950D03*
X0205300Y0150950D03*
X0195300Y0150950D03*
X0185300Y0150950D03*
X0175300Y0150950D03*
X0165300Y0150950D03*
X0155300Y0150950D03*
X0130300Y0145950D03*
X0120300Y0145950D03*
X0110300Y0145950D03*
X0110300Y0185950D03*
X0120300Y0185950D03*
X0130300Y0185950D03*
X0180300Y0170950D03*
X0190300Y0170950D03*
X0195300Y0190950D03*
X0205300Y0190950D03*
X0215300Y0190950D03*
X0225300Y0190950D03*
X0235300Y0190950D03*
X0245300Y0190950D03*
X0255300Y0190950D03*
X0255300Y0150950D03*
X0245300Y0150950D03*
X0235300Y0150950D03*
X0225300Y0150950D03*
X0265300Y0150950D03*
X0265300Y0090950D03*
X0255300Y0090950D03*
X0245300Y0090950D03*
X0235300Y0090950D03*
X0225300Y0090950D03*
X0215300Y0090950D03*
X0205300Y0090950D03*
X0195300Y0090950D03*
X0185300Y0090950D03*
X0175300Y0090950D03*
X0165300Y0090950D03*
X0155300Y0090950D03*
X0165300Y0075950D03*
X0175300Y0075950D03*
X0185300Y0075950D03*
X0140300Y0060950D03*
X0130300Y0060950D03*
X0120300Y0060950D03*
X0120300Y0105950D03*
X0130300Y0105950D03*
X0140300Y0105950D03*
D12*
X0075300Y0110050D03*
X0065300Y0104650D03*
X0075300Y0099250D03*
X0065300Y0093750D03*
X0075300Y0088350D03*
X0065300Y0082950D03*
X0075300Y0077450D03*
X0065300Y0072050D03*
X0075300Y0066650D03*
X0065300Y0061150D03*
X0075300Y0055750D03*
X0065300Y0115550D03*
X0075300Y0120950D03*
X0065300Y0126350D03*
X0075300Y0131850D03*
X0065300Y0137250D03*
X0075300Y0142650D03*
X0065300Y0148150D03*
X0075300Y0153550D03*
X0065300Y0158950D03*
X0075300Y0164450D03*
X0065300Y0169850D03*
X0075300Y0175250D03*
X0065300Y0180750D03*
X0075300Y0186150D03*
D13*
X0070300Y0213550D03*
X0070300Y0028350D03*
D14*
X0220300Y0072210D03*
X0220300Y0079690D03*
X0230300Y0079690D03*
X0230300Y0072210D03*
D15*
X0263906Y0015750D02*
X0055100Y0015750D01*
X0055100Y0226111D01*
X0263882Y0226111D01*
X0261222Y0221737D01*
X0261222Y0221737D01*
X0259694Y0216282D01*
X0259694Y0210618D01*
X0261222Y0205163D01*
X0264165Y0200323D01*
X0268305Y0196457D01*
X0268305Y0196457D01*
X0273334Y0193851D01*
X0273335Y0193851D01*
X0278881Y0192698D01*
X0284532Y0193085D01*
X0289869Y0194982D01*
X0289869Y0194982D01*
X0294201Y0198039D01*
X0294201Y0043861D01*
X0289869Y0046918D01*
X0284532Y0048815D01*
X0284532Y0048815D01*
X0278881Y0049202D01*
X0278881Y0049202D01*
X0273335Y0048049D01*
X0273334Y0048049D01*
X0268305Y0045443D01*
X0264165Y0041577D01*
X0264165Y0041577D01*
X0261222Y0036737D01*
X0261222Y0036737D01*
X0259694Y0031282D01*
X0259694Y0025618D01*
X0261222Y0020163D01*
X0263906Y0015750D01*
X0262936Y0017344D02*
X0076037Y0017344D01*
X0075086Y0016795D02*
X0071932Y0015950D01*
X0068667Y0015950D01*
X0065514Y0016795D01*
X0062686Y0018428D01*
X0060378Y0020736D01*
X0058745Y0023564D01*
X0057900Y0026717D01*
X0057900Y0029982D01*
X0058745Y0033136D01*
X0060378Y0035964D01*
X0062686Y0038272D01*
X0065514Y0039905D01*
X0068667Y0040750D01*
X0071932Y0040750D01*
X0075086Y0039905D01*
X0077914Y0038272D01*
X0080222Y0035964D01*
X0081855Y0033136D01*
X0082700Y0029982D01*
X0082700Y0026717D01*
X0081855Y0023564D01*
X0080222Y0020736D01*
X0077914Y0018428D01*
X0075086Y0016795D01*
X0078429Y0018943D02*
X0261964Y0018943D01*
X0261222Y0020163D02*
X0261222Y0020163D01*
X0261116Y0020541D02*
X0080027Y0020541D01*
X0081033Y0022140D02*
X0260668Y0022140D01*
X0260220Y0023738D02*
X0081902Y0023738D01*
X0082330Y0025337D02*
X0259773Y0025337D01*
X0259694Y0026935D02*
X0082700Y0026935D01*
X0082700Y0028534D02*
X0259694Y0028534D01*
X0259694Y0030132D02*
X0082660Y0030132D01*
X0082232Y0031731D02*
X0259819Y0031731D01*
X0260267Y0033329D02*
X0081744Y0033329D01*
X0080821Y0034928D02*
X0260715Y0034928D01*
X0261163Y0036526D02*
X0079660Y0036526D01*
X0078062Y0038125D02*
X0262066Y0038125D01*
X0263038Y0039723D02*
X0075401Y0039723D01*
X0078543Y0048201D02*
X0079105Y0047981D01*
X0079663Y0047750D01*
X0079697Y0047750D01*
X0079729Y0047738D01*
X0080332Y0047750D01*
X0225937Y0047750D01*
X0227113Y0048237D01*
X0232113Y0053237D01*
X0233013Y0054137D01*
X0233013Y0054137D01*
X0263831Y0084956D01*
X0264087Y0084850D01*
X0266513Y0084850D01*
X0268755Y0085779D01*
X0270471Y0087495D01*
X0271400Y0089737D01*
X0271400Y0092163D01*
X0270471Y0094405D01*
X0268755Y0096121D01*
X0266513Y0097050D01*
X0264087Y0097050D01*
X0261845Y0096121D01*
X0260129Y0094405D01*
X0259932Y0093931D01*
X0259495Y0094533D01*
X0258883Y0095145D01*
X0258183Y0095654D01*
X0257411Y0096047D01*
X0256588Y0096315D01*
X0255733Y0096450D01*
X0255500Y0096450D01*
X0255500Y0091150D01*
X0255100Y0091150D01*
X0255100Y0096450D01*
X0254867Y0096450D01*
X0254012Y0096315D01*
X0253189Y0096047D01*
X0252417Y0095654D01*
X0251717Y0095145D01*
X0251105Y0094533D01*
X0250668Y0093931D01*
X0250471Y0094405D01*
X0248755Y0096121D01*
X0246513Y0097050D01*
X0245925Y0097050D01*
X0277113Y0128237D01*
X0278013Y0129137D01*
X0278500Y0130313D01*
X0278500Y0181587D01*
X0278013Y0182763D01*
X0257113Y0203663D01*
X0255937Y0204150D01*
X0189663Y0204150D01*
X0188487Y0203663D01*
X0187587Y0202763D01*
X0183975Y0199150D01*
X0084463Y0199150D01*
X0083287Y0198663D01*
X0082387Y0197763D01*
X0082387Y0197763D01*
X0076175Y0191550D01*
X0073063Y0191550D01*
X0069900Y0188387D01*
X0069900Y0184150D01*
X0069537Y0184150D01*
X0067537Y0186150D01*
X0063063Y0186150D01*
X0059900Y0182987D01*
X0059900Y0178513D01*
X0063063Y0175350D01*
X0067537Y0175350D01*
X0069937Y0177750D01*
X0070163Y0177750D01*
X0069900Y0177487D01*
X0069900Y0173013D01*
X0073063Y0169850D01*
X0077537Y0169850D01*
X0080700Y0173013D01*
X0080700Y0177487D01*
X0078500Y0179687D01*
X0078500Y0181713D01*
X0080700Y0183913D01*
X0080700Y0187025D01*
X0086425Y0192750D01*
X0179200Y0192750D01*
X0179200Y0186773D01*
X0179565Y0185891D01*
X0180241Y0185215D01*
X0181123Y0184850D01*
X0189477Y0184850D01*
X0190359Y0185215D01*
X0191035Y0185891D01*
X0191239Y0186384D01*
X0191845Y0185779D01*
X0194087Y0184850D01*
X0196513Y0184850D01*
X0198755Y0185779D01*
X0200471Y0187495D01*
X0200668Y0187969D01*
X0201105Y0187367D01*
X0201717Y0186755D01*
X0202417Y0186246D01*
X0203189Y0185853D01*
X0204012Y0185585D01*
X0204867Y0185450D01*
X0205100Y0185450D01*
X0205100Y0190750D01*
X0205500Y0190750D01*
X0205500Y0185450D01*
X0205733Y0185450D01*
X0206588Y0185585D01*
X0207411Y0185853D01*
X0208183Y0186246D01*
X0208883Y0186755D01*
X0209495Y0187367D01*
X0209932Y0187969D01*
X0210129Y0187495D01*
X0211845Y0185779D01*
X0212100Y0185673D01*
X0212100Y0176227D01*
X0211845Y0176121D01*
X0210129Y0174405D01*
X0209200Y0172163D01*
X0209200Y0169737D01*
X0210129Y0167495D01*
X0211845Y0165779D01*
X0212100Y0165673D01*
X0212100Y0156227D01*
X0211845Y0156121D01*
X0210300Y0154577D01*
X0208755Y0156121D01*
X0206513Y0157050D01*
X0204087Y0157050D01*
X0201845Y0156121D01*
X0200300Y0154577D01*
X0198755Y0156121D01*
X0198500Y0156227D01*
X0198500Y0166587D01*
X0198013Y0167763D01*
X0196294Y0169481D01*
X0196400Y0169737D01*
X0196400Y0172163D01*
X0195471Y0174405D01*
X0193755Y0176121D01*
X0191513Y0177050D01*
X0190828Y0177050D01*
X0188213Y0182279D01*
X0188013Y0182763D01*
X0187930Y0182846D01*
X0187877Y0182950D01*
X0187482Y0183293D01*
X0187113Y0183663D01*
X0187004Y0183708D01*
X0186916Y0183784D01*
X0186420Y0183950D01*
X0185937Y0184150D01*
X0185819Y0184150D01*
X0185708Y0184187D01*
X0185186Y0184150D01*
X0174663Y0184150D01*
X0173487Y0183663D01*
X0172587Y0182763D01*
X0168975Y0179150D01*
X0099663Y0179150D01*
X0098487Y0178663D01*
X0078156Y0158331D01*
X0077537Y0158950D01*
X0073063Y0158950D01*
X0069900Y0155787D01*
X0069900Y0151350D01*
X0069737Y0151350D01*
X0067537Y0153550D01*
X0063063Y0153550D01*
X0059900Y0150387D01*
X0059900Y0145913D01*
X0063063Y0142750D01*
X0067537Y0142750D01*
X0069737Y0144950D01*
X0069963Y0144950D01*
X0069900Y0144887D01*
X0069900Y0140450D01*
X0069737Y0140450D01*
X0067537Y0142650D01*
X0063063Y0142650D01*
X0059900Y0139487D01*
X0059900Y0135013D01*
X0063063Y0131850D01*
X0067537Y0131850D01*
X0069737Y0134050D01*
X0069900Y0134050D01*
X0069900Y0129613D01*
X0069963Y0129550D01*
X0069737Y0129550D01*
X0067537Y0131750D01*
X0063063Y0131750D01*
X0059900Y0128587D01*
X0059900Y0124113D01*
X0063063Y0120950D01*
X0059900Y0117787D01*
X0059900Y0113313D01*
X0063063Y0110150D01*
X0067537Y0110150D01*
X0069737Y0112350D01*
X0069963Y0112350D01*
X0069900Y0112287D01*
X0069900Y0107850D01*
X0069737Y0107850D01*
X0067537Y0110050D01*
X0063063Y0110050D01*
X0059900Y0106887D01*
X0059900Y0102413D01*
X0063063Y0099250D01*
X0067537Y0099250D01*
X0069737Y0101450D01*
X0069900Y0101450D01*
X0069900Y0097013D01*
X0069963Y0096950D01*
X0069737Y0096950D01*
X0067537Y0099150D01*
X0063063Y0099150D01*
X0059900Y0095987D01*
X0059900Y0091513D01*
X0063063Y0088350D01*
X0067537Y0088350D01*
X0069737Y0090550D01*
X0069900Y0090550D01*
X0069900Y0086113D01*
X0073063Y0082950D01*
X0077537Y0082950D01*
X0079737Y0085150D01*
X0081575Y0085150D01*
X0097587Y0069137D01*
X0098487Y0068237D01*
X0099663Y0067750D01*
X0148975Y0067750D01*
X0157587Y0059137D01*
X0158487Y0058237D01*
X0159663Y0057750D01*
X0170937Y0057750D01*
X0172113Y0058237D01*
X0173013Y0059137D01*
X0173013Y0059137D01*
X0183831Y0069956D01*
X0184087Y0069850D01*
X0186513Y0069850D01*
X0188755Y0070779D01*
X0190471Y0072495D01*
X0191400Y0074737D01*
X0191400Y0077163D01*
X0190471Y0079405D01*
X0188755Y0081121D01*
X0188500Y0081227D01*
X0188500Y0085673D01*
X0188755Y0085779D01*
X0190300Y0087323D01*
X0191845Y0085779D01*
X0194087Y0084850D01*
X0196513Y0084850D01*
X0198755Y0085779D01*
X0200300Y0087323D01*
X0201845Y0085779D01*
X0204087Y0084850D01*
X0206513Y0084850D01*
X0208755Y0085779D01*
X0210300Y0087323D01*
X0211845Y0085779D01*
X0214087Y0084850D01*
X0216513Y0084850D01*
X0218755Y0085779D01*
X0220300Y0087323D01*
X0221845Y0085779D01*
X0222100Y0085673D01*
X0222100Y0084649D01*
X0216870Y0084649D01*
X0215988Y0084284D01*
X0215313Y0083609D01*
X0214947Y0082727D01*
X0214947Y0076654D01*
X0215239Y0075950D01*
X0214947Y0075246D01*
X0214947Y0069173D01*
X0215313Y0068291D01*
X0215988Y0067616D01*
X0216870Y0067251D01*
X0217100Y0067251D01*
X0217100Y0065313D01*
X0217587Y0064137D01*
X0225775Y0055950D01*
X0223975Y0054150D01*
X0143500Y0054150D01*
X0143500Y0055673D01*
X0143755Y0055779D01*
X0145471Y0057495D01*
X0146400Y0059737D01*
X0146400Y0062163D01*
X0145471Y0064405D01*
X0143755Y0066121D01*
X0141513Y0067050D01*
X0139087Y0067050D01*
X0136845Y0066121D01*
X0135129Y0064405D01*
X0134932Y0063931D01*
X0134495Y0064533D01*
X0133883Y0065145D01*
X0133183Y0065654D01*
X0132411Y0066047D01*
X0131588Y0066315D01*
X0130733Y0066450D01*
X0130500Y0066450D01*
X0130500Y0061150D01*
X0130100Y0061150D01*
X0130100Y0066450D01*
X0129867Y0066450D01*
X0129012Y0066315D01*
X0128189Y0066047D01*
X0127417Y0065654D01*
X0126717Y0065145D01*
X0126105Y0064533D01*
X0125596Y0063833D01*
X0125300Y0063252D01*
X0125004Y0063833D01*
X0124495Y0064533D01*
X0123883Y0065145D01*
X0123183Y0065654D01*
X0122411Y0066047D01*
X0121588Y0066315D01*
X0120733Y0066450D01*
X0120500Y0066450D01*
X0120500Y0061150D01*
X0120100Y0061150D01*
X0120100Y0066450D01*
X0119867Y0066450D01*
X0119012Y0066315D01*
X0118189Y0066047D01*
X0117417Y0065654D01*
X0116717Y0065145D01*
X0116105Y0064533D01*
X0115800Y0064113D01*
X0115800Y0064887D01*
X0115677Y0065345D01*
X0115440Y0065755D01*
X0115105Y0066090D01*
X0114695Y0066327D01*
X0114237Y0066450D01*
X0110500Y0066450D01*
X0110500Y0061150D01*
X0110100Y0061150D01*
X0110100Y0066450D01*
X0106363Y0066450D01*
X0105905Y0066327D01*
X0105495Y0066090D01*
X0105160Y0065755D01*
X0104923Y0065345D01*
X0104800Y0064887D01*
X0104800Y0061150D01*
X0110100Y0061150D01*
X0110100Y0060750D01*
X0110500Y0060750D01*
X0110500Y0061150D01*
X0120100Y0061150D01*
X0120100Y0060750D01*
X0120500Y0060750D01*
X0120500Y0061150D01*
X0130100Y0061150D01*
X0130100Y0060750D01*
X0130500Y0060750D01*
X0130500Y0055450D01*
X0130733Y0055450D01*
X0131588Y0055585D01*
X0132411Y0055853D01*
X0133183Y0056246D01*
X0133883Y0056755D01*
X0134495Y0057367D01*
X0134932Y0057969D01*
X0135129Y0057495D01*
X0136845Y0055779D01*
X0137100Y0055673D01*
X0137100Y0054150D01*
X0081587Y0054150D01*
X0080700Y0055002D01*
X0080700Y0057987D01*
X0078500Y0060187D01*
X0078500Y0062213D01*
X0080700Y0064413D01*
X0080700Y0068887D01*
X0077537Y0072050D01*
X0073063Y0072050D01*
X0069900Y0068887D01*
X0069900Y0064850D01*
X0069237Y0064850D01*
X0067537Y0066550D01*
X0063063Y0066550D01*
X0059900Y0063387D01*
X0059900Y0058913D01*
X0063063Y0055750D01*
X0067537Y0055750D01*
X0070237Y0058450D01*
X0070363Y0058450D01*
X0069900Y0057987D01*
X0069900Y0053513D01*
X0073063Y0050350D01*
X0076304Y0050350D01*
X0078060Y0048664D01*
X0078487Y0048237D01*
X0078519Y0048224D01*
X0078543Y0048201D01*
X0077383Y0049314D02*
X0055100Y0049314D01*
X0055100Y0047716D02*
X0272691Y0047716D01*
X0269606Y0046117D02*
X0055100Y0046117D01*
X0055100Y0044519D02*
X0267315Y0044519D01*
X0268305Y0045443D02*
X0268305Y0045443D01*
X0265604Y0042920D02*
X0055100Y0042920D01*
X0055100Y0041322D02*
X0264010Y0041322D01*
X0287625Y0047716D02*
X0294201Y0047716D01*
X0294201Y0049314D02*
X0228190Y0049314D01*
X0229788Y0050913D02*
X0294201Y0050913D01*
X0294201Y0052511D02*
X0231387Y0052511D01*
X0232113Y0053237D02*
X0232113Y0053237D01*
X0232985Y0054110D02*
X0294201Y0054110D01*
X0294201Y0055708D02*
X0234584Y0055708D01*
X0236182Y0057307D02*
X0294201Y0057307D01*
X0294201Y0058905D02*
X0237781Y0058905D01*
X0239379Y0060504D02*
X0294201Y0060504D01*
X0294201Y0062102D02*
X0240978Y0062102D01*
X0242576Y0063701D02*
X0294201Y0063701D01*
X0294201Y0065299D02*
X0244175Y0065299D01*
X0245773Y0066898D02*
X0294201Y0066898D01*
X0294201Y0068496D02*
X0247372Y0068496D01*
X0248970Y0070095D02*
X0294201Y0070095D01*
X0294201Y0071693D02*
X0250569Y0071693D01*
X0252167Y0073292D02*
X0294201Y0073292D01*
X0294201Y0074890D02*
X0253766Y0074890D01*
X0255364Y0076489D02*
X0294201Y0076489D01*
X0294201Y0078087D02*
X0256963Y0078087D01*
X0258561Y0079686D02*
X0294201Y0079686D01*
X0294201Y0081284D02*
X0260160Y0081284D01*
X0261758Y0082883D02*
X0294201Y0082883D01*
X0294201Y0084482D02*
X0263357Y0084482D01*
X0269057Y0086080D02*
X0294201Y0086080D01*
X0294201Y0087679D02*
X0270548Y0087679D01*
X0271210Y0089277D02*
X0294201Y0089277D01*
X0294201Y0090876D02*
X0271400Y0090876D01*
X0271271Y0092474D02*
X0294201Y0092474D01*
X0294201Y0094073D02*
X0270609Y0094073D01*
X0269206Y0095671D02*
X0294201Y0095671D01*
X0294201Y0097270D02*
X0246145Y0097270D01*
X0247744Y0098868D02*
X0294201Y0098868D01*
X0294201Y0100467D02*
X0249342Y0100467D01*
X0250941Y0102065D02*
X0294201Y0102065D01*
X0294201Y0103664D02*
X0252539Y0103664D01*
X0254138Y0105262D02*
X0294201Y0105262D01*
X0294201Y0106861D02*
X0255736Y0106861D01*
X0257335Y0108459D02*
X0294201Y0108459D01*
X0294201Y0110058D02*
X0258933Y0110058D01*
X0260532Y0111656D02*
X0294201Y0111656D01*
X0294201Y0113255D02*
X0262130Y0113255D01*
X0263729Y0114853D02*
X0294201Y0114853D01*
X0294201Y0116452D02*
X0265327Y0116452D01*
X0266926Y0118050D02*
X0294201Y0118050D01*
X0294201Y0119649D02*
X0268524Y0119649D01*
X0270123Y0121247D02*
X0294201Y0121247D01*
X0294201Y0122846D02*
X0271721Y0122846D01*
X0273320Y0124444D02*
X0294201Y0124444D01*
X0294201Y0126043D02*
X0274918Y0126043D01*
X0276517Y0127641D02*
X0294201Y0127641D01*
X0294201Y0129240D02*
X0278055Y0129240D01*
X0278500Y0130838D02*
X0294201Y0130838D01*
X0294201Y0132437D02*
X0278500Y0132437D01*
X0278500Y0134035D02*
X0294201Y0134035D01*
X0294201Y0135634D02*
X0278500Y0135634D01*
X0278500Y0137232D02*
X0294201Y0137232D01*
X0294201Y0138831D02*
X0278500Y0138831D01*
X0278500Y0140429D02*
X0294201Y0140429D01*
X0294201Y0142028D02*
X0278500Y0142028D01*
X0278500Y0143626D02*
X0294201Y0143626D01*
X0294201Y0145225D02*
X0278500Y0145225D01*
X0278500Y0146823D02*
X0294201Y0146823D01*
X0294201Y0148422D02*
X0278500Y0148422D01*
X0278500Y0150020D02*
X0294201Y0150020D01*
X0294201Y0151619D02*
X0278500Y0151619D01*
X0278500Y0153218D02*
X0294201Y0153218D01*
X0294201Y0154816D02*
X0278500Y0154816D01*
X0278500Y0156415D02*
X0294201Y0156415D01*
X0294201Y0158013D02*
X0278500Y0158013D01*
X0278500Y0159612D02*
X0294201Y0159612D01*
X0294201Y0161210D02*
X0278500Y0161210D01*
X0278500Y0162809D02*
X0294201Y0162809D01*
X0294201Y0164407D02*
X0278500Y0164407D01*
X0278500Y0166006D02*
X0294201Y0166006D01*
X0294201Y0167604D02*
X0278500Y0167604D01*
X0278500Y0169203D02*
X0294201Y0169203D01*
X0294201Y0170801D02*
X0278500Y0170801D01*
X0278500Y0172400D02*
X0294201Y0172400D01*
X0294201Y0173998D02*
X0278500Y0173998D01*
X0278500Y0175597D02*
X0294201Y0175597D01*
X0294201Y0177195D02*
X0278500Y0177195D01*
X0278500Y0178794D02*
X0294201Y0178794D01*
X0294201Y0180392D02*
X0278500Y0180392D01*
X0278333Y0181991D02*
X0294201Y0181991D01*
X0294201Y0183589D02*
X0277186Y0183589D01*
X0275588Y0185188D02*
X0294201Y0185188D01*
X0294201Y0186786D02*
X0273989Y0186786D01*
X0272391Y0188385D02*
X0294201Y0188385D01*
X0294201Y0189983D02*
X0270792Y0189983D01*
X0269194Y0191582D02*
X0294201Y0191582D01*
X0294201Y0193180D02*
X0284800Y0193180D01*
X0284532Y0193085D02*
X0284532Y0193085D01*
X0289298Y0194779D02*
X0294201Y0194779D01*
X0294201Y0196377D02*
X0291846Y0196377D01*
X0294111Y0197976D02*
X0294201Y0197976D01*
X0278881Y0192698D02*
X0278881Y0192698D01*
X0276562Y0193180D02*
X0267595Y0193180D01*
X0265997Y0194779D02*
X0271544Y0194779D01*
X0268459Y0196377D02*
X0264398Y0196377D01*
X0262800Y0197976D02*
X0266679Y0197976D01*
X0264967Y0199574D02*
X0261201Y0199574D01*
X0259603Y0201173D02*
X0263649Y0201173D01*
X0264165Y0200323D02*
X0264165Y0200323D01*
X0262677Y0202771D02*
X0258004Y0202771D01*
X0255300Y0200950D02*
X0275300Y0180950D01*
X0240300Y0180950D01*
X0235300Y0175950D01*
X0235300Y0170950D01*
X0239361Y0166384D02*
X0239565Y0165891D01*
X0240241Y0165215D01*
X0241123Y0164850D01*
X0242100Y0164850D01*
X0242100Y0156227D01*
X0241845Y0156121D01*
X0240300Y0154577D01*
X0238755Y0156121D01*
X0236513Y0157050D01*
X0234087Y0157050D01*
X0231845Y0156121D01*
X0230300Y0154577D01*
X0228755Y0156121D01*
X0228500Y0156227D01*
X0228500Y0165673D01*
X0228755Y0165779D01*
X0230300Y0167323D01*
X0231845Y0165779D01*
X0234087Y0164850D01*
X0236513Y0164850D01*
X0238755Y0165779D01*
X0239361Y0166384D01*
X0239518Y0166006D02*
X0238982Y0166006D01*
X0242100Y0164407D02*
X0228500Y0164407D01*
X0228500Y0162809D02*
X0242100Y0162809D01*
X0242100Y0161210D02*
X0228500Y0161210D01*
X0228500Y0159612D02*
X0242100Y0159612D01*
X0242100Y0158013D02*
X0228500Y0158013D01*
X0228500Y0156415D02*
X0232552Y0156415D01*
X0230539Y0154816D02*
X0230061Y0154816D01*
X0225300Y0150950D02*
X0225300Y0170950D01*
X0225300Y0190950D01*
X0220837Y0186786D02*
X0219763Y0186786D01*
X0220300Y0187323D02*
X0221845Y0185779D01*
X0222100Y0185673D01*
X0222100Y0176227D01*
X0221845Y0176121D01*
X0220300Y0174577D01*
X0218755Y0176121D01*
X0218500Y0176227D01*
X0218500Y0185673D01*
X0218755Y0185779D01*
X0220300Y0187323D01*
X0218500Y0185188D02*
X0222100Y0185188D01*
X0222100Y0183589D02*
X0218500Y0183589D01*
X0218500Y0181991D02*
X0222100Y0181991D01*
X0222100Y0180392D02*
X0218500Y0180392D01*
X0218500Y0178794D02*
X0222100Y0178794D01*
X0222100Y0177195D02*
X0218500Y0177195D01*
X0219280Y0175597D02*
X0221320Y0175597D01*
X0215300Y0170950D02*
X0215300Y0190950D01*
X0210837Y0186786D02*
X0208914Y0186786D01*
X0205500Y0186786D02*
X0205100Y0186786D01*
X0205100Y0188385D02*
X0205500Y0188385D01*
X0205500Y0189983D02*
X0205100Y0189983D01*
X0205100Y0191150D02*
X0205100Y0196450D01*
X0204867Y0196450D01*
X0204012Y0196315D01*
X0203189Y0196047D01*
X0202417Y0195654D01*
X0201717Y0195145D01*
X0201105Y0194533D01*
X0200668Y0193931D01*
X0200471Y0194405D01*
X0198755Y0196121D01*
X0196513Y0197050D01*
X0194087Y0197050D01*
X0191845Y0196121D01*
X0191239Y0195516D01*
X0191035Y0196009D01*
X0190460Y0196584D01*
X0191625Y0197750D01*
X0253975Y0197750D01*
X0254675Y0197050D01*
X0254087Y0197050D01*
X0251845Y0196121D01*
X0250300Y0194577D01*
X0248755Y0196121D01*
X0246513Y0197050D01*
X0244087Y0197050D01*
X0241845Y0196121D01*
X0240300Y0194577D01*
X0238755Y0196121D01*
X0236513Y0197050D01*
X0234087Y0197050D01*
X0231845Y0196121D01*
X0230300Y0194577D01*
X0228755Y0196121D01*
X0226513Y0197050D01*
X0224087Y0197050D01*
X0221845Y0196121D01*
X0220300Y0194577D01*
X0218755Y0196121D01*
X0216513Y0197050D01*
X0214087Y0197050D01*
X0211845Y0196121D01*
X0210129Y0194405D01*
X0209932Y0193931D01*
X0209495Y0194533D01*
X0208883Y0195145D01*
X0208183Y0195654D01*
X0207411Y0196047D01*
X0206588Y0196315D01*
X0205733Y0196450D01*
X0205500Y0196450D01*
X0205500Y0191150D01*
X0205100Y0191150D01*
X0205100Y0191582D02*
X0205500Y0191582D01*
X0205500Y0193180D02*
X0205100Y0193180D01*
X0205100Y0194779D02*
X0205500Y0194779D01*
X0205500Y0196377D02*
X0205100Y0196377D01*
X0204408Y0196377D02*
X0198137Y0196377D01*
X0200098Y0194779D02*
X0201351Y0194779D01*
X0206192Y0196377D02*
X0212463Y0196377D01*
X0210502Y0194779D02*
X0209249Y0194779D01*
X0218137Y0196377D02*
X0222463Y0196377D01*
X0220502Y0194779D02*
X0220098Y0194779D01*
X0228137Y0196377D02*
X0232463Y0196377D01*
X0230502Y0194779D02*
X0230098Y0194779D01*
X0230300Y0187323D02*
X0231845Y0185779D01*
X0234087Y0184850D01*
X0236513Y0184850D01*
X0238755Y0185779D01*
X0240300Y0187323D01*
X0241845Y0185779D01*
X0244087Y0184850D01*
X0246513Y0184850D01*
X0248755Y0185779D01*
X0250300Y0187323D01*
X0251845Y0185779D01*
X0254087Y0184850D01*
X0256513Y0184850D01*
X0258755Y0185779D01*
X0260471Y0187495D01*
X0261400Y0189737D01*
X0261400Y0190325D01*
X0267575Y0184150D01*
X0239663Y0184150D01*
X0238487Y0183663D01*
X0233487Y0178663D01*
X0232587Y0177763D01*
X0232100Y0176587D01*
X0232100Y0176227D01*
X0231845Y0176121D01*
X0230300Y0174577D01*
X0228755Y0176121D01*
X0228500Y0176227D01*
X0228500Y0185673D01*
X0228755Y0185779D01*
X0230300Y0187323D01*
X0229763Y0186786D02*
X0230837Y0186786D01*
X0228500Y0185188D02*
X0233271Y0185188D01*
X0237329Y0185188D02*
X0243271Y0185188D01*
X0240837Y0186786D02*
X0239763Y0186786D01*
X0238414Y0183589D02*
X0228500Y0183589D01*
X0228500Y0181991D02*
X0236815Y0181991D01*
X0235217Y0180392D02*
X0228500Y0180392D01*
X0228500Y0178794D02*
X0233618Y0178794D01*
X0232352Y0177195D02*
X0228500Y0177195D01*
X0229280Y0175597D02*
X0231320Y0175597D01*
X0240786Y0176911D02*
X0241625Y0177750D01*
X0272100Y0177750D01*
X0272100Y0132275D01*
X0236769Y0096944D01*
X0236513Y0097050D01*
X0234087Y0097050D01*
X0231845Y0096121D01*
X0230300Y0094577D01*
X0228755Y0096121D01*
X0226513Y0097050D01*
X0224087Y0097050D01*
X0221845Y0096121D01*
X0220300Y0094577D01*
X0218755Y0096121D01*
X0218500Y0096227D01*
X0218500Y0096587D01*
X0218013Y0097763D01*
X0188025Y0127750D01*
X0189897Y0127750D01*
X0190122Y0127692D01*
X0190527Y0127750D01*
X0190937Y0127750D01*
X0191152Y0127839D01*
X0191383Y0127872D01*
X0191735Y0128081D01*
X0192113Y0128237D01*
X0192277Y0128402D01*
X0192478Y0128521D01*
X0192724Y0128848D01*
X0193013Y0129137D01*
X0193102Y0129353D01*
X0204725Y0144850D01*
X0206513Y0144850D01*
X0208755Y0145779D01*
X0210300Y0147323D01*
X0211845Y0145779D01*
X0214087Y0144850D01*
X0216513Y0144850D01*
X0218755Y0145779D01*
X0220300Y0147323D01*
X0221845Y0145779D01*
X0224087Y0144850D01*
X0226513Y0144850D01*
X0228755Y0145779D01*
X0230300Y0147323D01*
X0231845Y0145779D01*
X0234087Y0144850D01*
X0236513Y0144850D01*
X0238755Y0145779D01*
X0240300Y0147323D01*
X0241845Y0145779D01*
X0244087Y0144850D01*
X0246513Y0144850D01*
X0248755Y0145779D01*
X0250300Y0147323D01*
X0251845Y0145779D01*
X0254087Y0144850D01*
X0256513Y0144850D01*
X0258755Y0145779D01*
X0260300Y0147323D01*
X0261845Y0145779D01*
X0264087Y0144850D01*
X0266513Y0144850D01*
X0268755Y0145779D01*
X0270471Y0147495D01*
X0271400Y0149737D01*
X0271400Y0152163D01*
X0270471Y0154405D01*
X0268755Y0156121D01*
X0266513Y0157050D01*
X0264087Y0157050D01*
X0261845Y0156121D01*
X0260300Y0154577D01*
X0258755Y0156121D01*
X0256513Y0157050D01*
X0254087Y0157050D01*
X0251845Y0156121D01*
X0250300Y0154577D01*
X0248755Y0156121D01*
X0248500Y0156227D01*
X0248500Y0164850D01*
X0249477Y0164850D01*
X0250359Y0165215D01*
X0251035Y0165891D01*
X0251400Y0166773D01*
X0251400Y0175127D01*
X0251035Y0176009D01*
X0250359Y0176685D01*
X0249477Y0177050D01*
X0241123Y0177050D01*
X0240786Y0176911D01*
X0241071Y0177195D02*
X0272100Y0177195D01*
X0272100Y0175597D02*
X0251206Y0175597D01*
X0251400Y0173998D02*
X0272100Y0173998D01*
X0272100Y0172400D02*
X0251400Y0172400D01*
X0251400Y0170801D02*
X0272100Y0170801D01*
X0272100Y0169203D02*
X0251400Y0169203D01*
X0251400Y0167604D02*
X0272100Y0167604D01*
X0272100Y0166006D02*
X0251082Y0166006D01*
X0248500Y0164407D02*
X0272100Y0164407D01*
X0272100Y0162809D02*
X0248500Y0162809D01*
X0248500Y0161210D02*
X0272100Y0161210D01*
X0272100Y0159612D02*
X0248500Y0159612D01*
X0248500Y0158013D02*
X0272100Y0158013D01*
X0272100Y0156415D02*
X0268048Y0156415D01*
X0270061Y0154816D02*
X0272100Y0154816D01*
X0272100Y0153218D02*
X0270963Y0153218D01*
X0271400Y0151619D02*
X0272100Y0151619D01*
X0272100Y0150020D02*
X0271400Y0150020D01*
X0270855Y0148422D02*
X0272100Y0148422D01*
X0272100Y0146823D02*
X0269800Y0146823D01*
X0272100Y0145225D02*
X0267419Y0145225D01*
X0263181Y0145225D02*
X0257419Y0145225D01*
X0259800Y0146823D02*
X0260800Y0146823D01*
X0253181Y0145225D02*
X0247419Y0145225D01*
X0249800Y0146823D02*
X0250800Y0146823D01*
X0245300Y0150950D02*
X0245300Y0170950D01*
X0231618Y0166006D02*
X0228982Y0166006D01*
X0222100Y0165673D02*
X0222100Y0156227D01*
X0221845Y0156121D01*
X0220300Y0154577D01*
X0218755Y0156121D01*
X0218500Y0156227D01*
X0218500Y0165673D01*
X0218755Y0165779D01*
X0220300Y0167323D01*
X0221845Y0165779D01*
X0222100Y0165673D01*
X0221618Y0166006D02*
X0218982Y0166006D01*
X0218500Y0164407D02*
X0222100Y0164407D01*
X0222100Y0162809D02*
X0218500Y0162809D01*
X0218500Y0161210D02*
X0222100Y0161210D01*
X0222100Y0159612D02*
X0218500Y0159612D01*
X0218500Y0158013D02*
X0222100Y0158013D01*
X0222100Y0156415D02*
X0218500Y0156415D01*
X0220061Y0154816D02*
X0220539Y0154816D01*
X0215300Y0150950D02*
X0215300Y0170950D01*
X0209960Y0173998D02*
X0195640Y0173998D01*
X0196302Y0172400D02*
X0209298Y0172400D01*
X0209200Y0170801D02*
X0196400Y0170801D01*
X0196573Y0169203D02*
X0209421Y0169203D01*
X0210083Y0167604D02*
X0198078Y0167604D01*
X0198500Y0166006D02*
X0211618Y0166006D01*
X0212100Y0164407D02*
X0198500Y0164407D01*
X0198500Y0162809D02*
X0212100Y0162809D01*
X0212100Y0161210D02*
X0198500Y0161210D01*
X0198500Y0159612D02*
X0212100Y0159612D01*
X0212100Y0158013D02*
X0198500Y0158013D01*
X0198500Y0156415D02*
X0202552Y0156415D01*
X0200539Y0154816D02*
X0200061Y0154816D01*
X0195300Y0150950D02*
X0195300Y0165950D01*
X0190300Y0170950D01*
X0185300Y0180950D01*
X0175300Y0180950D01*
X0170300Y0175950D01*
X0100300Y0175950D01*
X0077900Y0153550D01*
X0075300Y0153550D01*
X0069900Y0153218D02*
X0067869Y0153218D01*
X0067288Y0154150D02*
X0070100Y0156962D01*
X0070100Y0158750D01*
X0065500Y0158750D01*
X0065500Y0159150D01*
X0065100Y0159150D01*
X0065100Y0163750D01*
X0063312Y0163750D01*
X0060500Y0160938D01*
X0060500Y0159150D01*
X0065100Y0159150D01*
X0065100Y0158750D01*
X0060500Y0158750D01*
X0060500Y0156962D01*
X0063312Y0154150D01*
X0065100Y0154150D01*
X0065100Y0158750D01*
X0065500Y0158750D01*
X0065500Y0154150D01*
X0067288Y0154150D01*
X0067954Y0154816D02*
X0069900Y0154816D01*
X0069553Y0156415D02*
X0070528Y0156415D01*
X0070100Y0158013D02*
X0072126Y0158013D01*
X0073312Y0159650D02*
X0070500Y0162462D01*
X0070500Y0164250D01*
X0075100Y0164250D01*
X0075100Y0164650D01*
X0075100Y0169250D01*
X0073312Y0169250D01*
X0070500Y0166438D01*
X0070500Y0164650D01*
X0075100Y0164650D01*
X0075500Y0164650D01*
X0075500Y0169250D01*
X0077288Y0169250D01*
X0080100Y0166438D01*
X0080100Y0164650D01*
X0075500Y0164650D01*
X0075500Y0164250D01*
X0080100Y0164250D01*
X0080100Y0162462D01*
X0077288Y0159650D01*
X0075500Y0159650D01*
X0075500Y0164250D01*
X0075100Y0164250D01*
X0075100Y0159650D01*
X0073312Y0159650D01*
X0071752Y0161210D02*
X0069828Y0161210D01*
X0070100Y0160938D02*
X0067288Y0163750D01*
X0065500Y0163750D01*
X0065500Y0159150D01*
X0070100Y0159150D01*
X0070100Y0160938D01*
X0070100Y0159612D02*
X0079436Y0159612D01*
X0078848Y0161210D02*
X0081035Y0161210D01*
X0080100Y0162809D02*
X0082633Y0162809D01*
X0084232Y0164407D02*
X0075500Y0164407D01*
X0075100Y0164407D02*
X0055100Y0164407D01*
X0055100Y0162809D02*
X0062370Y0162809D01*
X0060772Y0161210D02*
X0055100Y0161210D01*
X0055100Y0159612D02*
X0060500Y0159612D01*
X0060500Y0158013D02*
X0055100Y0158013D01*
X0055100Y0156415D02*
X0061047Y0156415D01*
X0062646Y0154816D02*
X0055100Y0154816D01*
X0055100Y0153218D02*
X0062731Y0153218D01*
X0061132Y0151619D02*
X0055100Y0151619D01*
X0055100Y0150020D02*
X0059900Y0150020D01*
X0059900Y0148422D02*
X0055100Y0148422D01*
X0055100Y0146823D02*
X0059900Y0146823D01*
X0060588Y0145225D02*
X0055100Y0145225D01*
X0055100Y0143626D02*
X0062187Y0143626D01*
X0062441Y0142028D02*
X0055100Y0142028D01*
X0055100Y0140429D02*
X0060843Y0140429D01*
X0059900Y0138831D02*
X0055100Y0138831D01*
X0055100Y0137232D02*
X0059900Y0137232D01*
X0059900Y0135634D02*
X0055100Y0135634D01*
X0055100Y0134035D02*
X0060878Y0134035D01*
X0062476Y0132437D02*
X0055100Y0132437D01*
X0055100Y0130838D02*
X0062152Y0130838D01*
X0060553Y0129240D02*
X0055100Y0129240D01*
X0055100Y0127641D02*
X0059900Y0127641D01*
X0059900Y0126043D02*
X0055100Y0126043D01*
X0055100Y0124444D02*
X0059900Y0124444D01*
X0061167Y0122846D02*
X0055100Y0122846D01*
X0055100Y0121247D02*
X0062766Y0121247D01*
X0063063Y0120950D02*
X0067537Y0120950D01*
X0063063Y0120950D01*
X0061762Y0119649D02*
X0055100Y0119649D01*
X0055100Y0118050D02*
X0060164Y0118050D01*
X0059900Y0116452D02*
X0055100Y0116452D01*
X0055100Y0114853D02*
X0059900Y0114853D01*
X0059959Y0113255D02*
X0055100Y0113255D01*
X0055100Y0111656D02*
X0061557Y0111656D01*
X0061472Y0108459D02*
X0055100Y0108459D01*
X0055100Y0106861D02*
X0059900Y0106861D01*
X0059900Y0105262D02*
X0055100Y0105262D01*
X0055100Y0103664D02*
X0059900Y0103664D01*
X0060248Y0102065D02*
X0055100Y0102065D01*
X0055100Y0100467D02*
X0061847Y0100467D01*
X0062781Y0098868D02*
X0055100Y0098868D01*
X0055100Y0097270D02*
X0061183Y0097270D01*
X0059900Y0095671D02*
X0055100Y0095671D01*
X0055100Y0094073D02*
X0059900Y0094073D01*
X0059900Y0092474D02*
X0055100Y0092474D01*
X0055100Y0090876D02*
X0060538Y0090876D01*
X0062136Y0089277D02*
X0055100Y0089277D01*
X0055100Y0087679D02*
X0063240Y0087679D01*
X0063312Y0087750D02*
X0060500Y0084938D01*
X0060500Y0083150D01*
X0065100Y0083150D01*
X0065100Y0087750D01*
X0063312Y0087750D01*
X0065100Y0087679D02*
X0065500Y0087679D01*
X0065500Y0087750D02*
X0065500Y0083150D01*
X0065100Y0083150D01*
X0065100Y0082750D01*
X0060500Y0082750D01*
X0060500Y0080962D01*
X0063312Y0078150D01*
X0065100Y0078150D01*
X0065100Y0082750D01*
X0065500Y0082750D01*
X0065500Y0083150D01*
X0070100Y0083150D01*
X0070100Y0084938D01*
X0067288Y0087750D01*
X0065500Y0087750D01*
X0065500Y0086080D02*
X0065100Y0086080D01*
X0065100Y0084482D02*
X0065500Y0084482D01*
X0065500Y0082883D02*
X0083841Y0082883D01*
X0082243Y0084482D02*
X0079068Y0084482D01*
X0077288Y0082250D02*
X0075500Y0082250D01*
X0075500Y0077650D01*
X0075100Y0077650D01*
X0075100Y0082250D01*
X0073312Y0082250D01*
X0070500Y0079438D01*
X0070500Y0077650D01*
X0075100Y0077650D01*
X0075100Y0077250D01*
X0070500Y0077250D01*
X0070500Y0075462D01*
X0073312Y0072650D01*
X0075100Y0072650D01*
X0075100Y0077250D01*
X0075500Y0077250D01*
X0075500Y0077650D01*
X0080100Y0077650D01*
X0080100Y0079438D01*
X0077288Y0082250D01*
X0078254Y0081284D02*
X0085440Y0081284D01*
X0087039Y0079686D02*
X0079852Y0079686D01*
X0080100Y0078087D02*
X0088637Y0078087D01*
X0090236Y0076489D02*
X0080100Y0076489D01*
X0080100Y0077250D02*
X0075500Y0077250D01*
X0075500Y0072650D01*
X0077288Y0072650D01*
X0080100Y0075462D01*
X0080100Y0077250D01*
X0079529Y0074890D02*
X0091834Y0074890D01*
X0093433Y0073292D02*
X0077930Y0073292D01*
X0077893Y0071693D02*
X0095031Y0071693D01*
X0096630Y0070095D02*
X0079492Y0070095D01*
X0080700Y0068496D02*
X0098228Y0068496D01*
X0100300Y0070950D02*
X0150300Y0070950D01*
X0160300Y0060950D01*
X0170300Y0060950D01*
X0185300Y0075950D01*
X0185300Y0090950D01*
X0189206Y0095671D02*
X0191053Y0095671D01*
X0191224Y0095501D02*
X0190300Y0094577D01*
X0188755Y0096121D01*
X0186513Y0097050D01*
X0184087Y0097050D01*
X0181845Y0096121D01*
X0180300Y0094577D01*
X0178755Y0096121D01*
X0176513Y0097050D01*
X0174087Y0097050D01*
X0171845Y0096121D01*
X0170300Y0094577D01*
X0168755Y0096121D01*
X0166513Y0097050D01*
X0164087Y0097050D01*
X0161845Y0096121D01*
X0160300Y0094577D01*
X0158755Y0096121D01*
X0156513Y0097050D01*
X0154087Y0097050D01*
X0151845Y0096121D01*
X0150129Y0094405D01*
X0150023Y0094150D01*
X0143500Y0094150D01*
X0143500Y0100673D01*
X0143755Y0100779D01*
X0145471Y0102495D01*
X0146400Y0104737D01*
X0146400Y0107163D01*
X0145471Y0109405D01*
X0143755Y0111121D01*
X0141513Y0112050D01*
X0140925Y0112050D01*
X0141625Y0112750D01*
X0173975Y0112750D01*
X0191224Y0095501D01*
X0189455Y0097270D02*
X0143500Y0097270D01*
X0143500Y0098868D02*
X0187856Y0098868D01*
X0186258Y0100467D02*
X0143500Y0100467D01*
X0145042Y0102065D02*
X0184659Y0102065D01*
X0183061Y0103664D02*
X0145956Y0103664D01*
X0146400Y0105262D02*
X0181462Y0105262D01*
X0179864Y0106861D02*
X0146400Y0106861D01*
X0145863Y0108459D02*
X0178265Y0108459D01*
X0176667Y0110058D02*
X0144819Y0110058D01*
X0142464Y0111656D02*
X0175068Y0111656D01*
X0175300Y0115950D02*
X0140300Y0115950D01*
X0130300Y0105950D01*
X0120300Y0090950D01*
X0100300Y0090950D01*
X0081200Y0110050D01*
X0075300Y0110050D01*
X0069900Y0110058D02*
X0055100Y0110058D01*
X0065300Y0104650D02*
X0081600Y0104650D01*
X0100300Y0085950D01*
X0125300Y0085950D01*
X0130300Y0090950D01*
X0140300Y0090950D01*
X0140300Y0105950D01*
X0135558Y0102065D02*
X0135042Y0102065D01*
X0135300Y0102323D02*
X0136845Y0100779D01*
X0137100Y0100673D01*
X0137100Y0094150D01*
X0129663Y0094150D01*
X0128487Y0093663D01*
X0127587Y0092763D01*
X0123975Y0089150D01*
X0123018Y0089150D01*
X0123136Y0089436D01*
X0130079Y0099850D01*
X0131513Y0099850D01*
X0133755Y0100779D01*
X0135300Y0102323D01*
X0137100Y0100467D02*
X0133002Y0100467D01*
X0129425Y0098868D02*
X0137100Y0098868D01*
X0137100Y0097270D02*
X0128359Y0097270D01*
X0127293Y0095671D02*
X0137100Y0095671D01*
X0140300Y0090950D02*
X0155300Y0090950D01*
X0160300Y0087323D02*
X0161845Y0085779D01*
X0162100Y0085673D01*
X0162100Y0084150D01*
X0128025Y0084150D01*
X0131625Y0087750D01*
X0150023Y0087750D01*
X0150129Y0087495D01*
X0151845Y0085779D01*
X0154087Y0084850D01*
X0156513Y0084850D01*
X0158755Y0085779D01*
X0160300Y0087323D01*
X0159057Y0086080D02*
X0161543Y0086080D01*
X0162100Y0084482D02*
X0128357Y0084482D01*
X0129955Y0086080D02*
X0151543Y0086080D01*
X0150052Y0087679D02*
X0131554Y0087679D01*
X0127299Y0092474D02*
X0125162Y0092474D01*
X0125700Y0090876D02*
X0124096Y0090876D01*
X0124102Y0089277D02*
X0123071Y0089277D01*
X0126228Y0094073D02*
X0129477Y0094073D01*
X0121733Y0098868D02*
X0120337Y0098868D01*
X0120828Y0099850D02*
X0118213Y0094620D01*
X0118018Y0094150D01*
X0118587Y0094150D01*
X0122721Y0100350D01*
X0121513Y0099850D01*
X0120828Y0099850D01*
X0120667Y0097270D02*
X0119537Y0097270D01*
X0119601Y0095671D02*
X0118738Y0095671D01*
X0115300Y0095950D02*
X0120300Y0105950D01*
X0135300Y0120950D01*
X0180300Y0120950D01*
X0205300Y0095950D01*
X0205300Y0090950D01*
X0201224Y0095501D02*
X0200300Y0094577D01*
X0198755Y0096121D01*
X0198500Y0096227D01*
X0198500Y0096587D01*
X0198013Y0097763D01*
X0178025Y0117750D01*
X0178975Y0117750D01*
X0201224Y0095501D01*
X0201053Y0095671D02*
X0199206Y0095671D01*
X0199455Y0097270D02*
X0198217Y0097270D01*
X0197856Y0098868D02*
X0196907Y0098868D01*
X0196258Y0100467D02*
X0195309Y0100467D01*
X0194659Y0102065D02*
X0193710Y0102065D01*
X0193061Y0103664D02*
X0192112Y0103664D01*
X0191462Y0105262D02*
X0190513Y0105262D01*
X0189864Y0106861D02*
X0188915Y0106861D01*
X0188265Y0108459D02*
X0187316Y0108459D01*
X0186667Y0110058D02*
X0185718Y0110058D01*
X0185068Y0111656D02*
X0184119Y0111656D01*
X0183470Y0113255D02*
X0182521Y0113255D01*
X0181871Y0114853D02*
X0180922Y0114853D01*
X0180273Y0116452D02*
X0179324Y0116452D01*
X0175300Y0115950D02*
X0195300Y0095950D01*
X0195300Y0090950D01*
X0199057Y0086080D02*
X0201543Y0086080D01*
X0209057Y0086080D02*
X0211543Y0086080D01*
X0215012Y0082883D02*
X0188500Y0082883D01*
X0188500Y0081284D02*
X0214947Y0081284D01*
X0214947Y0079686D02*
X0190191Y0079686D01*
X0191017Y0078087D02*
X0214947Y0078087D01*
X0215015Y0076489D02*
X0191400Y0076489D01*
X0191400Y0074890D02*
X0214947Y0074890D01*
X0214947Y0073292D02*
X0190802Y0073292D01*
X0189670Y0071693D02*
X0214947Y0071693D01*
X0214947Y0070095D02*
X0187105Y0070095D01*
X0182372Y0068496D02*
X0215228Y0068496D01*
X0217100Y0066898D02*
X0180773Y0066898D01*
X0179175Y0065299D02*
X0217106Y0065299D01*
X0218024Y0063701D02*
X0177576Y0063701D01*
X0175978Y0062102D02*
X0219622Y0062102D01*
X0221221Y0060504D02*
X0174379Y0060504D01*
X0172781Y0058905D02*
X0222819Y0058905D01*
X0224418Y0057307D02*
X0145284Y0057307D01*
X0146056Y0058905D02*
X0157819Y0058905D01*
X0156221Y0060504D02*
X0146400Y0060504D01*
X0146400Y0062102D02*
X0154622Y0062102D01*
X0153024Y0063701D02*
X0145763Y0063701D01*
X0144577Y0065299D02*
X0151425Y0065299D01*
X0149827Y0066898D02*
X0141881Y0066898D01*
X0138719Y0066898D02*
X0080700Y0066898D01*
X0080700Y0065299D02*
X0104911Y0065299D01*
X0104800Y0063701D02*
X0079988Y0063701D01*
X0078500Y0062102D02*
X0104800Y0062102D01*
X0104800Y0060750D02*
X0104800Y0057013D01*
X0104923Y0056555D01*
X0105160Y0056145D01*
X0105495Y0055810D01*
X0105905Y0055573D01*
X0106363Y0055450D01*
X0110100Y0055450D01*
X0110100Y0060750D01*
X0104800Y0060750D01*
X0104800Y0060504D02*
X0078500Y0060504D01*
X0079781Y0058905D02*
X0104800Y0058905D01*
X0104800Y0057307D02*
X0080700Y0057307D01*
X0080700Y0055708D02*
X0105670Y0055708D01*
X0110100Y0055708D02*
X0110500Y0055708D01*
X0110500Y0055450D02*
X0114237Y0055450D01*
X0114695Y0055573D01*
X0115105Y0055810D01*
X0115440Y0056145D01*
X0115677Y0056555D01*
X0115800Y0057013D01*
X0115800Y0057787D01*
X0116105Y0057367D01*
X0116717Y0056755D01*
X0117417Y0056246D01*
X0118189Y0055853D01*
X0119012Y0055585D01*
X0119867Y0055450D01*
X0120100Y0055450D01*
X0120100Y0060750D01*
X0115800Y0060750D01*
X0110500Y0060750D01*
X0110500Y0055450D01*
X0110500Y0057307D02*
X0110100Y0057307D01*
X0110100Y0058905D02*
X0110500Y0058905D01*
X0110500Y0060504D02*
X0110100Y0060504D01*
X0110100Y0062102D02*
X0110500Y0062102D01*
X0110500Y0063701D02*
X0110100Y0063701D01*
X0110100Y0065299D02*
X0110500Y0065299D01*
X0115689Y0065299D02*
X0116929Y0065299D01*
X0120100Y0065299D02*
X0120500Y0065299D01*
X0120500Y0063701D02*
X0120100Y0063701D01*
X0120100Y0062102D02*
X0120500Y0062102D01*
X0120500Y0060750D02*
X0124800Y0060750D01*
X0130100Y0060750D01*
X0130100Y0055450D01*
X0129867Y0055450D01*
X0129012Y0055585D01*
X0128189Y0055853D01*
X0127417Y0056246D01*
X0126717Y0056755D01*
X0126105Y0057367D01*
X0125596Y0058067D01*
X0125300Y0058648D01*
X0125004Y0058067D01*
X0124495Y0057367D01*
X0123883Y0056755D01*
X0123183Y0056246D01*
X0122411Y0055853D01*
X0121588Y0055585D01*
X0120733Y0055450D01*
X0120500Y0055450D01*
X0120500Y0060750D01*
X0120500Y0060504D02*
X0120100Y0060504D01*
X0120100Y0058905D02*
X0120500Y0058905D01*
X0120500Y0057307D02*
X0120100Y0057307D01*
X0120100Y0055708D02*
X0120500Y0055708D01*
X0121966Y0055708D02*
X0128634Y0055708D01*
X0130100Y0055708D02*
X0130500Y0055708D01*
X0131966Y0055708D02*
X0137014Y0055708D01*
X0135316Y0057307D02*
X0134435Y0057307D01*
X0130500Y0057307D02*
X0130100Y0057307D01*
X0130100Y0058905D02*
X0130500Y0058905D01*
X0130500Y0060504D02*
X0130100Y0060504D01*
X0130100Y0062102D02*
X0130500Y0062102D01*
X0130500Y0063701D02*
X0130100Y0063701D01*
X0130100Y0065299D02*
X0130500Y0065299D01*
X0133671Y0065299D02*
X0136023Y0065299D01*
X0140300Y0060950D02*
X0140300Y0050950D01*
X0225300Y0050950D01*
X0230300Y0055950D01*
X0220300Y0065950D01*
X0220300Y0072210D01*
X0225628Y0069113D02*
X0225287Y0068291D01*
X0224612Y0067616D01*
X0223730Y0067251D01*
X0223525Y0067251D01*
X0230300Y0060475D01*
X0255500Y0085675D01*
X0255500Y0090750D01*
X0255100Y0090750D01*
X0255100Y0085450D01*
X0254867Y0085450D01*
X0254012Y0085585D01*
X0253189Y0085853D01*
X0252417Y0086246D01*
X0251717Y0086755D01*
X0251105Y0087367D01*
X0250668Y0087969D01*
X0250471Y0087495D01*
X0248755Y0085779D01*
X0246513Y0084850D01*
X0244087Y0084850D01*
X0241845Y0085779D01*
X0240300Y0087323D01*
X0238755Y0085779D01*
X0236513Y0084850D01*
X0234087Y0084850D01*
X0231845Y0085779D01*
X0230300Y0087323D01*
X0228755Y0085779D01*
X0228500Y0085673D01*
X0228500Y0084649D01*
X0233730Y0084649D01*
X0234612Y0084284D01*
X0235287Y0083609D01*
X0235653Y0082727D01*
X0235653Y0076654D01*
X0235287Y0075772D01*
X0234941Y0075425D01*
X0235053Y0075006D01*
X0235053Y0072689D01*
X0230780Y0072689D01*
X0230780Y0071730D01*
X0235053Y0071730D01*
X0235053Y0069414D01*
X0234930Y0068956D01*
X0234693Y0068546D01*
X0234358Y0068210D01*
X0233948Y0067973D01*
X0233490Y0067851D01*
X0230780Y0067851D01*
X0230780Y0071730D01*
X0229820Y0071730D01*
X0229820Y0067851D01*
X0227110Y0067851D01*
X0226652Y0067973D01*
X0226242Y0068210D01*
X0225907Y0068546D01*
X0225670Y0068956D01*
X0225628Y0069113D01*
X0225372Y0068496D02*
X0225956Y0068496D01*
X0223878Y0066898D02*
X0236722Y0066898D01*
X0235124Y0065299D02*
X0225476Y0065299D01*
X0227075Y0063701D02*
X0233525Y0063701D01*
X0231927Y0062102D02*
X0228673Y0062102D01*
X0230272Y0060504D02*
X0230328Y0060504D01*
X0230300Y0055950D02*
X0265300Y0090950D01*
X0259991Y0094073D02*
X0259830Y0094073D01*
X0261394Y0095671D02*
X0258149Y0095671D01*
X0255500Y0095671D02*
X0255100Y0095671D01*
X0255100Y0094073D02*
X0255500Y0094073D01*
X0255500Y0092474D02*
X0255100Y0092474D01*
X0252451Y0095671D02*
X0249206Y0095671D01*
X0250609Y0094073D02*
X0250770Y0094073D01*
X0250878Y0087679D02*
X0250548Y0087679D01*
X0249057Y0086080D02*
X0252743Y0086080D01*
X0254306Y0084482D02*
X0234135Y0084482D01*
X0235588Y0082883D02*
X0252708Y0082883D01*
X0251109Y0081284D02*
X0235653Y0081284D01*
X0235653Y0079686D02*
X0249511Y0079686D01*
X0247912Y0078087D02*
X0235653Y0078087D01*
X0235584Y0076489D02*
X0246313Y0076489D01*
X0244715Y0074890D02*
X0235053Y0074890D01*
X0235053Y0073292D02*
X0243116Y0073292D01*
X0241518Y0071693D02*
X0235053Y0071693D01*
X0235053Y0070095D02*
X0239919Y0070095D01*
X0238321Y0068496D02*
X0234644Y0068496D01*
X0230780Y0068496D02*
X0229820Y0068496D01*
X0229820Y0070095D02*
X0230780Y0070095D01*
X0230780Y0071693D02*
X0229820Y0071693D01*
X0225628Y0075306D02*
X0225659Y0075425D01*
X0225522Y0075562D01*
X0225628Y0075306D01*
X0230300Y0079690D02*
X0229040Y0080950D01*
X0225300Y0080950D01*
X0221560Y0080950D01*
X0220300Y0079690D01*
X0225300Y0080950D02*
X0225300Y0090950D01*
X0229206Y0095671D02*
X0231394Y0095671D01*
X0237094Y0097270D02*
X0218217Y0097270D01*
X0219206Y0095671D02*
X0221394Y0095671D01*
X0216907Y0098868D02*
X0238693Y0098868D01*
X0240291Y0100467D02*
X0215309Y0100467D01*
X0213710Y0102065D02*
X0241890Y0102065D01*
X0243488Y0103664D02*
X0212112Y0103664D01*
X0210513Y0105262D02*
X0245087Y0105262D01*
X0246685Y0106861D02*
X0208915Y0106861D01*
X0207316Y0108459D02*
X0248284Y0108459D01*
X0249882Y0110058D02*
X0205718Y0110058D01*
X0204119Y0111656D02*
X0251481Y0111656D01*
X0253079Y0113255D02*
X0202521Y0113255D01*
X0200922Y0114853D02*
X0254678Y0114853D01*
X0256276Y0116452D02*
X0199324Y0116452D01*
X0197725Y0118050D02*
X0257875Y0118050D01*
X0259473Y0119649D02*
X0196127Y0119649D01*
X0194528Y0121247D02*
X0261072Y0121247D01*
X0262670Y0122846D02*
X0192930Y0122846D01*
X0191331Y0124444D02*
X0264269Y0124444D01*
X0265867Y0126043D02*
X0189733Y0126043D01*
X0188134Y0127641D02*
X0267466Y0127641D01*
X0269064Y0129240D02*
X0193055Y0129240D01*
X0194216Y0130838D02*
X0270663Y0130838D01*
X0272100Y0132437D02*
X0195415Y0132437D01*
X0196614Y0134035D02*
X0272100Y0134035D01*
X0272100Y0135634D02*
X0197813Y0135634D01*
X0199012Y0137232D02*
X0272100Y0137232D01*
X0272100Y0138831D02*
X0200211Y0138831D01*
X0201410Y0140429D02*
X0272100Y0140429D01*
X0272100Y0142028D02*
X0202608Y0142028D01*
X0203807Y0143626D02*
X0272100Y0143626D01*
X0275300Y0130950D02*
X0275300Y0180950D01*
X0266537Y0185188D02*
X0257329Y0185188D01*
X0259763Y0186786D02*
X0264938Y0186786D01*
X0263340Y0188385D02*
X0260840Y0188385D01*
X0261400Y0189983D02*
X0261741Y0189983D01*
X0253271Y0185188D02*
X0247329Y0185188D01*
X0249763Y0186786D02*
X0250837Y0186786D01*
X0250502Y0194779D02*
X0250098Y0194779D01*
X0248137Y0196377D02*
X0252463Y0196377D01*
X0255300Y0200950D02*
X0190300Y0200950D01*
X0185300Y0195950D01*
X0085100Y0195950D01*
X0075300Y0186150D01*
X0075300Y0180950D01*
X0075300Y0175250D01*
X0079393Y0178794D02*
X0098803Y0178794D01*
X0100100Y0180450D02*
X0096363Y0180450D01*
X0095905Y0180573D01*
X0095495Y0180810D01*
X0095160Y0181145D01*
X0094923Y0181555D01*
X0094800Y0182013D01*
X0094800Y0185750D01*
X0100100Y0185750D01*
X0100500Y0185750D01*
X0100500Y0186150D01*
X0100100Y0186150D01*
X0100100Y0191450D01*
X0096363Y0191450D01*
X0095905Y0191327D01*
X0095495Y0191090D01*
X0095160Y0190755D01*
X0094923Y0190345D01*
X0094800Y0189887D01*
X0094800Y0186150D01*
X0100100Y0186150D01*
X0100100Y0185750D01*
X0100100Y0180450D01*
X0100500Y0180450D02*
X0104237Y0180450D01*
X0104695Y0180573D01*
X0105105Y0180810D01*
X0105440Y0181145D01*
X0105677Y0181555D01*
X0105800Y0182013D01*
X0105800Y0182787D01*
X0106105Y0182367D01*
X0106717Y0181755D01*
X0107417Y0181246D01*
X0108189Y0180853D01*
X0109012Y0180585D01*
X0109867Y0180450D01*
X0110100Y0180450D01*
X0110100Y0185750D01*
X0110500Y0185750D01*
X0110500Y0186150D01*
X0110100Y0186150D01*
X0110100Y0191450D01*
X0109867Y0191450D01*
X0109012Y0191315D01*
X0108189Y0191047D01*
X0107417Y0190654D01*
X0106717Y0190145D01*
X0106105Y0189533D01*
X0105800Y0189113D01*
X0105800Y0189887D01*
X0105677Y0190345D01*
X0105440Y0190755D01*
X0105105Y0191090D01*
X0104695Y0191327D01*
X0104237Y0191450D01*
X0100500Y0191450D01*
X0100500Y0186150D01*
X0110100Y0186150D01*
X0110100Y0185750D01*
X0104800Y0185750D01*
X0100500Y0185750D01*
X0100500Y0180450D01*
X0100500Y0181991D02*
X0100100Y0181991D01*
X0100100Y0183589D02*
X0100500Y0183589D01*
X0100500Y0185188D02*
X0100100Y0185188D01*
X0100100Y0186786D02*
X0100500Y0186786D01*
X0100500Y0188385D02*
X0100100Y0188385D01*
X0100100Y0189983D02*
X0100500Y0189983D01*
X0105774Y0189983D02*
X0106555Y0189983D01*
X0110100Y0189983D02*
X0110500Y0189983D01*
X0110500Y0191450D02*
X0110500Y0186150D01*
X0120100Y0186150D01*
X0120100Y0191450D01*
X0119867Y0191450D01*
X0119012Y0191315D01*
X0118189Y0191047D01*
X0117417Y0190654D01*
X0116717Y0190145D01*
X0116105Y0189533D01*
X0115596Y0188833D01*
X0115300Y0188252D01*
X0115004Y0188833D01*
X0114495Y0189533D01*
X0113883Y0190145D01*
X0113183Y0190654D01*
X0112411Y0191047D01*
X0111588Y0191315D01*
X0110733Y0191450D01*
X0110500Y0191450D01*
X0114045Y0189983D02*
X0116555Y0189983D01*
X0115368Y0188385D02*
X0115232Y0188385D01*
X0114800Y0185750D02*
X0120100Y0185750D01*
X0120500Y0185750D01*
X0120500Y0186150D01*
X0120100Y0186150D01*
X0120100Y0185750D01*
X0120100Y0180450D01*
X0119867Y0180450D01*
X0119012Y0180585D01*
X0118189Y0180853D01*
X0117417Y0181246D01*
X0116717Y0181755D01*
X0116105Y0182367D01*
X0115596Y0183067D01*
X0115300Y0183648D01*
X0115004Y0183067D01*
X0114495Y0182367D01*
X0113883Y0181755D01*
X0113183Y0181246D01*
X0112411Y0180853D01*
X0111588Y0180585D01*
X0110733Y0180450D01*
X0110500Y0180450D01*
X0110500Y0185750D01*
X0114800Y0185750D01*
X0115270Y0183589D02*
X0115330Y0183589D01*
X0116481Y0181991D02*
X0114119Y0181991D01*
X0110500Y0181991D02*
X0110100Y0181991D01*
X0110100Y0183589D02*
X0110500Y0183589D01*
X0110500Y0185188D02*
X0110100Y0185188D01*
X0110100Y0186786D02*
X0110500Y0186786D01*
X0110500Y0188385D02*
X0110100Y0188385D01*
X0106481Y0181991D02*
X0105794Y0181991D01*
X0097020Y0177195D02*
X0080700Y0177195D01*
X0080700Y0175597D02*
X0095421Y0175597D01*
X0093823Y0173998D02*
X0080700Y0173998D01*
X0080086Y0172400D02*
X0092224Y0172400D01*
X0090626Y0170801D02*
X0078488Y0170801D01*
X0077336Y0169203D02*
X0089027Y0169203D01*
X0087429Y0167604D02*
X0078934Y0167604D01*
X0080100Y0166006D02*
X0085830Y0166006D01*
X0093487Y0159612D02*
X0109436Y0159612D01*
X0111035Y0161210D02*
X0095086Y0161210D01*
X0096684Y0162809D02*
X0112633Y0162809D01*
X0114232Y0164407D02*
X0098283Y0164407D01*
X0099881Y0166006D02*
X0115830Y0166006D01*
X0117429Y0167604D02*
X0101480Y0167604D01*
X0101625Y0167750D02*
X0117575Y0167750D01*
X0101875Y0152050D01*
X0096123Y0152050D01*
X0095241Y0151685D01*
X0094565Y0151009D01*
X0094200Y0150127D01*
X0094200Y0149150D01*
X0084663Y0149150D01*
X0083487Y0148663D01*
X0082587Y0147763D01*
X0080675Y0145850D01*
X0079737Y0145850D01*
X0079731Y0145856D01*
X0080213Y0146337D01*
X0101625Y0167750D01*
X0100300Y0170950D02*
X0077500Y0148150D01*
X0065300Y0148150D01*
X0069468Y0151619D02*
X0069900Y0151619D01*
X0065500Y0154816D02*
X0065100Y0154816D01*
X0065100Y0156415D02*
X0065500Y0156415D01*
X0065500Y0158013D02*
X0065100Y0158013D01*
X0065100Y0159612D02*
X0065500Y0159612D01*
X0065500Y0161210D02*
X0065100Y0161210D01*
X0065100Y0162809D02*
X0065500Y0162809D01*
X0065500Y0165050D02*
X0067288Y0165050D01*
X0070100Y0167862D01*
X0070100Y0169650D01*
X0065500Y0169650D01*
X0065500Y0170050D01*
X0065100Y0170050D01*
X0065100Y0174650D01*
X0063312Y0174650D01*
X0060500Y0171838D01*
X0060500Y0170050D01*
X0065100Y0170050D01*
X0065100Y0169650D01*
X0060500Y0169650D01*
X0060500Y0167862D01*
X0063312Y0165050D01*
X0065100Y0165050D01*
X0065100Y0169650D01*
X0065500Y0169650D01*
X0065500Y0165050D01*
X0065500Y0166006D02*
X0065100Y0166006D01*
X0065100Y0167604D02*
X0065500Y0167604D01*
X0065500Y0169203D02*
X0065100Y0169203D01*
X0065500Y0170050D02*
X0070100Y0170050D01*
X0070100Y0171838D01*
X0067288Y0174650D01*
X0065500Y0174650D01*
X0065500Y0170050D01*
X0065500Y0170801D02*
X0065100Y0170801D01*
X0065100Y0172400D02*
X0065500Y0172400D01*
X0065500Y0173998D02*
X0065100Y0173998D01*
X0062660Y0173998D02*
X0055100Y0173998D01*
X0055100Y0172400D02*
X0061061Y0172400D01*
X0060500Y0170801D02*
X0055100Y0170801D01*
X0055100Y0169203D02*
X0060500Y0169203D01*
X0060758Y0167604D02*
X0055100Y0167604D01*
X0055100Y0166006D02*
X0062356Y0166006D01*
X0068244Y0166006D02*
X0070500Y0166006D01*
X0069842Y0167604D02*
X0071666Y0167604D01*
X0070100Y0169203D02*
X0073264Y0169203D01*
X0075100Y0169203D02*
X0075500Y0169203D01*
X0075500Y0167604D02*
X0075100Y0167604D01*
X0075100Y0166006D02*
X0075500Y0166006D01*
X0075500Y0162809D02*
X0075100Y0162809D01*
X0075100Y0161210D02*
X0075500Y0161210D01*
X0070500Y0162809D02*
X0068230Y0162809D01*
X0070100Y0170801D02*
X0072112Y0170801D01*
X0070514Y0172400D02*
X0069539Y0172400D01*
X0069900Y0173998D02*
X0067940Y0173998D01*
X0067783Y0175597D02*
X0069900Y0175597D01*
X0069900Y0177195D02*
X0069382Y0177195D01*
X0065300Y0180750D02*
X0065300Y0180950D01*
X0075300Y0180950D01*
X0078500Y0180392D02*
X0170217Y0180392D01*
X0171815Y0181991D02*
X0134119Y0181991D01*
X0133883Y0181755D02*
X0134495Y0182367D01*
X0135004Y0183067D01*
X0135397Y0183839D01*
X0135665Y0184662D01*
X0135800Y0185517D01*
X0135800Y0185750D01*
X0130500Y0185750D01*
X0130500Y0186150D01*
X0130100Y0186150D01*
X0130100Y0191450D01*
X0129867Y0191450D01*
X0129012Y0191315D01*
X0128189Y0191047D01*
X0127417Y0190654D01*
X0126717Y0190145D01*
X0126105Y0189533D01*
X0125596Y0188833D01*
X0125300Y0188252D01*
X0125004Y0188833D01*
X0124495Y0189533D01*
X0123883Y0190145D01*
X0123183Y0190654D01*
X0122411Y0191047D01*
X0121588Y0191315D01*
X0120733Y0191450D01*
X0120500Y0191450D01*
X0120500Y0186150D01*
X0130100Y0186150D01*
X0130100Y0185750D01*
X0130500Y0185750D01*
X0130500Y0180450D01*
X0130733Y0180450D01*
X0131588Y0180585D01*
X0132411Y0180853D01*
X0133183Y0181246D01*
X0133883Y0181755D01*
X0135270Y0183589D02*
X0173414Y0183589D01*
X0179200Y0186786D02*
X0135736Y0186786D01*
X0135800Y0186383D02*
X0135665Y0187238D01*
X0135397Y0188061D01*
X0135004Y0188833D01*
X0134495Y0189533D01*
X0133883Y0190145D01*
X0133183Y0190654D01*
X0132411Y0191047D01*
X0131588Y0191315D01*
X0130733Y0191450D01*
X0130500Y0191450D01*
X0130500Y0186150D01*
X0135800Y0186150D01*
X0135800Y0186383D01*
X0135748Y0185188D02*
X0180307Y0185188D01*
X0179200Y0188385D02*
X0135232Y0188385D01*
X0134045Y0189983D02*
X0179200Y0189983D01*
X0179200Y0191582D02*
X0085257Y0191582D01*
X0083659Y0189983D02*
X0094826Y0189983D01*
X0094800Y0188385D02*
X0082060Y0188385D01*
X0080700Y0186786D02*
X0094800Y0186786D01*
X0094800Y0185188D02*
X0080700Y0185188D01*
X0080376Y0183589D02*
X0094800Y0183589D01*
X0094806Y0181991D02*
X0078777Y0181991D01*
X0069900Y0185188D02*
X0068499Y0185188D01*
X0069900Y0186786D02*
X0055100Y0186786D01*
X0055100Y0185188D02*
X0062101Y0185188D01*
X0060502Y0183589D02*
X0055100Y0183589D01*
X0055100Y0181991D02*
X0059900Y0181991D01*
X0059900Y0180392D02*
X0055100Y0180392D01*
X0055100Y0178794D02*
X0059900Y0178794D01*
X0061218Y0177195D02*
X0055100Y0177195D01*
X0055100Y0175597D02*
X0062817Y0175597D01*
X0069900Y0188385D02*
X0055100Y0188385D01*
X0055100Y0189983D02*
X0071497Y0189983D01*
X0076206Y0191582D02*
X0055100Y0191582D01*
X0055100Y0193180D02*
X0077805Y0193180D01*
X0079403Y0194779D02*
X0055100Y0194779D01*
X0055100Y0196377D02*
X0081002Y0196377D01*
X0082600Y0197976D02*
X0055100Y0197976D01*
X0055100Y0199574D02*
X0184399Y0199574D01*
X0185997Y0201173D02*
X0072018Y0201173D01*
X0071932Y0201150D02*
X0075086Y0201995D01*
X0077914Y0203628D01*
X0080222Y0205936D01*
X0081855Y0208764D01*
X0082700Y0211917D01*
X0082700Y0215182D01*
X0081855Y0218336D01*
X0080222Y0221164D01*
X0077914Y0223472D01*
X0075086Y0225105D01*
X0071932Y0225950D01*
X0068667Y0225950D01*
X0065514Y0225105D01*
X0062686Y0223472D01*
X0060378Y0221164D01*
X0058745Y0218336D01*
X0057900Y0215182D01*
X0057900Y0211917D01*
X0058745Y0208764D01*
X0060378Y0205936D01*
X0062686Y0203628D01*
X0065514Y0201995D01*
X0068667Y0201150D01*
X0071932Y0201150D01*
X0068582Y0201173D02*
X0055100Y0201173D01*
X0055100Y0202771D02*
X0064169Y0202771D01*
X0061944Y0204370D02*
X0055100Y0204370D01*
X0055100Y0205968D02*
X0060359Y0205968D01*
X0059436Y0207567D02*
X0055100Y0207567D01*
X0055100Y0209165D02*
X0058637Y0209165D01*
X0058209Y0210764D02*
X0055100Y0210764D01*
X0055100Y0212362D02*
X0057900Y0212362D01*
X0057900Y0213961D02*
X0055100Y0213961D01*
X0055100Y0215559D02*
X0058001Y0215559D01*
X0058429Y0217158D02*
X0055100Y0217158D01*
X0055100Y0218756D02*
X0058988Y0218756D01*
X0059911Y0220355D02*
X0055100Y0220355D01*
X0055100Y0221953D02*
X0061167Y0221953D01*
X0062824Y0223552D02*
X0055100Y0223552D01*
X0055100Y0225151D02*
X0065684Y0225151D01*
X0074916Y0225151D02*
X0263298Y0225151D01*
X0262326Y0223552D02*
X0077776Y0223552D01*
X0079433Y0221953D02*
X0261354Y0221953D01*
X0260835Y0220355D02*
X0080689Y0220355D01*
X0081612Y0218756D02*
X0260387Y0218756D01*
X0259939Y0217158D02*
X0082171Y0217158D01*
X0082599Y0215559D02*
X0259694Y0215559D01*
X0259694Y0213961D02*
X0082700Y0213961D01*
X0082700Y0212362D02*
X0259694Y0212362D01*
X0259694Y0210764D02*
X0082391Y0210764D01*
X0081963Y0209165D02*
X0260101Y0209165D01*
X0260549Y0207567D02*
X0081164Y0207567D01*
X0080241Y0205968D02*
X0260996Y0205968D01*
X0261222Y0205163D02*
X0261222Y0205163D01*
X0261704Y0204370D02*
X0078656Y0204370D01*
X0076431Y0202771D02*
X0187596Y0202771D01*
X0190667Y0196377D02*
X0192463Y0196377D01*
X0185300Y0195950D02*
X0185300Y0190950D01*
X0190293Y0185188D02*
X0193271Y0185188D01*
X0197329Y0185188D02*
X0212100Y0185188D01*
X0212100Y0183589D02*
X0187186Y0183589D01*
X0188357Y0181991D02*
X0212100Y0181991D01*
X0212100Y0180392D02*
X0189157Y0180392D01*
X0189956Y0178794D02*
X0212100Y0178794D01*
X0212100Y0177195D02*
X0190755Y0177195D01*
X0194280Y0175597D02*
X0211320Y0175597D01*
X0201686Y0186786D02*
X0199763Y0186786D01*
X0183322Y0177750D02*
X0184518Y0175359D01*
X0183755Y0176121D01*
X0181513Y0177050D01*
X0179087Y0177050D01*
X0176845Y0176121D01*
X0175129Y0174405D01*
X0175023Y0174150D01*
X0173025Y0174150D01*
X0176625Y0177750D01*
X0183322Y0177750D01*
X0183600Y0177195D02*
X0176071Y0177195D01*
X0176320Y0175597D02*
X0174472Y0175597D01*
X0175300Y0170950D02*
X0175300Y0150950D01*
X0170300Y0154577D02*
X0168755Y0156121D01*
X0166513Y0157050D01*
X0164087Y0157050D01*
X0161845Y0156121D01*
X0160300Y0154577D01*
X0158755Y0156121D01*
X0156513Y0157050D01*
X0154087Y0157050D01*
X0153831Y0156944D01*
X0143025Y0167750D01*
X0172100Y0167750D01*
X0172100Y0156227D01*
X0171845Y0156121D01*
X0170300Y0154577D01*
X0170061Y0154816D02*
X0170539Y0154816D01*
X0172100Y0156415D02*
X0168048Y0156415D01*
X0172100Y0158013D02*
X0152762Y0158013D01*
X0151164Y0159612D02*
X0172100Y0159612D01*
X0172100Y0161210D02*
X0149565Y0161210D01*
X0147967Y0162809D02*
X0172100Y0162809D01*
X0172100Y0164407D02*
X0146368Y0164407D01*
X0144770Y0166006D02*
X0172100Y0166006D01*
X0172100Y0167604D02*
X0143171Y0167604D01*
X0140300Y0165950D02*
X0155300Y0150950D01*
X0159518Y0146541D02*
X0158322Y0144150D01*
X0156625Y0144150D01*
X0155925Y0144850D01*
X0156513Y0144850D01*
X0158755Y0145779D01*
X0159518Y0146541D01*
X0158860Y0145225D02*
X0157419Y0145225D01*
X0155300Y0140950D02*
X0160300Y0140950D01*
X0165300Y0150950D01*
X0167419Y0145225D02*
X0173181Y0145225D01*
X0174087Y0144850D02*
X0176513Y0144850D01*
X0177721Y0145350D01*
X0173587Y0139150D01*
X0163018Y0139150D01*
X0163213Y0139620D01*
X0165828Y0144850D01*
X0166513Y0144850D01*
X0168755Y0145779D01*
X0170300Y0147323D01*
X0171845Y0145779D01*
X0174087Y0144850D01*
X0176572Y0143626D02*
X0165216Y0143626D01*
X0164417Y0142028D02*
X0175506Y0142028D01*
X0174440Y0140429D02*
X0163617Y0140429D01*
X0155300Y0140950D02*
X0135300Y0160950D01*
X0120300Y0160950D01*
X0110300Y0150950D01*
X0110300Y0145950D01*
X0106600Y0137250D01*
X0065300Y0137250D01*
X0069722Y0134035D02*
X0069900Y0134035D01*
X0069900Y0132437D02*
X0068124Y0132437D01*
X0068448Y0130838D02*
X0069900Y0130838D01*
X0075300Y0131850D02*
X0111200Y0131850D01*
X0120300Y0145950D01*
X0120300Y0150950D01*
X0125300Y0155950D01*
X0135300Y0155950D01*
X0155300Y0135950D01*
X0175300Y0135950D01*
X0185300Y0150950D01*
X0190300Y0154577D02*
X0188755Y0156121D01*
X0186513Y0157050D01*
X0184087Y0157050D01*
X0181845Y0156121D01*
X0180300Y0154577D01*
X0178755Y0156121D01*
X0178500Y0156227D01*
X0178500Y0165093D01*
X0179087Y0164850D01*
X0181513Y0164850D01*
X0183755Y0165779D01*
X0185300Y0167323D01*
X0186845Y0165779D01*
X0189087Y0164850D01*
X0191513Y0164850D01*
X0191769Y0164956D01*
X0192100Y0164625D01*
X0192100Y0156227D01*
X0191845Y0156121D01*
X0190300Y0154577D01*
X0190061Y0154816D02*
X0190539Y0154816D01*
X0192100Y0156415D02*
X0188048Y0156415D01*
X0182552Y0156415D02*
X0178500Y0156415D01*
X0178500Y0158013D02*
X0192100Y0158013D01*
X0192100Y0159612D02*
X0178500Y0159612D01*
X0178500Y0161210D02*
X0192100Y0161210D01*
X0192100Y0162809D02*
X0178500Y0162809D01*
X0178500Y0164407D02*
X0192100Y0164407D01*
X0186618Y0166006D02*
X0183982Y0166006D01*
X0180300Y0170950D02*
X0175300Y0170950D01*
X0100300Y0170950D01*
X0107838Y0158013D02*
X0091889Y0158013D01*
X0090290Y0156415D02*
X0106239Y0156415D01*
X0104641Y0154816D02*
X0088691Y0154816D01*
X0087093Y0153218D02*
X0103042Y0153218D01*
X0100300Y0145950D02*
X0120300Y0165950D01*
X0140300Y0165950D01*
X0138975Y0162750D02*
X0138025Y0162750D01*
X0149200Y0151575D01*
X0149200Y0152163D01*
X0149306Y0152419D01*
X0138975Y0162750D01*
X0139565Y0161210D02*
X0140514Y0161210D01*
X0141164Y0159612D02*
X0142113Y0159612D01*
X0142762Y0158013D02*
X0143711Y0158013D01*
X0144361Y0156415D02*
X0145310Y0156415D01*
X0145959Y0154816D02*
X0146908Y0154816D01*
X0147558Y0153218D02*
X0148507Y0153218D01*
X0149156Y0151619D02*
X0149200Y0151619D01*
X0141500Y0145225D02*
X0136400Y0145225D01*
X0136400Y0144737D02*
X0136400Y0147163D01*
X0135471Y0149405D01*
X0133755Y0151121D01*
X0131513Y0152050D01*
X0129087Y0152050D01*
X0126845Y0151121D01*
X0125300Y0149577D01*
X0124376Y0150501D01*
X0126625Y0152750D01*
X0133975Y0152750D01*
X0152575Y0134150D01*
X0133500Y0134150D01*
X0133500Y0140673D01*
X0133755Y0140779D01*
X0135471Y0142495D01*
X0136400Y0144737D01*
X0135940Y0143626D02*
X0143098Y0143626D01*
X0144697Y0142028D02*
X0135005Y0142028D01*
X0133500Y0140429D02*
X0146295Y0140429D01*
X0147894Y0138831D02*
X0133500Y0138831D01*
X0133500Y0137232D02*
X0149492Y0137232D01*
X0151091Y0135634D02*
X0133500Y0135634D01*
X0130300Y0130950D02*
X0130300Y0145950D01*
X0128046Y0151619D02*
X0125494Y0151619D01*
X0125744Y0150020D02*
X0124856Y0150020D01*
X0119641Y0154816D02*
X0118691Y0154816D01*
X0118042Y0153218D02*
X0117093Y0153218D01*
X0117587Y0152763D02*
X0117100Y0151587D01*
X0117100Y0151227D01*
X0116845Y0151121D01*
X0115300Y0149577D01*
X0114376Y0150501D01*
X0121625Y0157750D01*
X0122575Y0157750D01*
X0117587Y0152763D01*
X0117113Y0151619D02*
X0115494Y0151619D01*
X0115744Y0150020D02*
X0114856Y0150020D01*
X0120290Y0156415D02*
X0121239Y0156415D01*
X0132554Y0151619D02*
X0135106Y0151619D01*
X0134856Y0150020D02*
X0136704Y0150020D01*
X0135879Y0148422D02*
X0138303Y0148422D01*
X0139901Y0146823D02*
X0136400Y0146823D01*
X0127100Y0140673D02*
X0127100Y0133297D01*
X0115208Y0129550D01*
X0113500Y0129550D01*
X0113544Y0129580D01*
X0113704Y0129828D01*
X0113913Y0130037D01*
X0114046Y0130358D01*
X0120172Y0139850D01*
X0121513Y0139850D01*
X0123755Y0140779D01*
X0125300Y0142323D01*
X0126845Y0140779D01*
X0127100Y0140673D01*
X0127100Y0140429D02*
X0122912Y0140429D01*
X0125005Y0142028D02*
X0125595Y0142028D01*
X0127100Y0138831D02*
X0119514Y0138831D01*
X0118482Y0137232D02*
X0127100Y0137232D01*
X0127100Y0135634D02*
X0117451Y0135634D01*
X0116419Y0134035D02*
X0127100Y0134035D01*
X0124371Y0132437D02*
X0115387Y0132437D01*
X0114356Y0130838D02*
X0119297Y0130838D01*
X0115700Y0126350D02*
X0130300Y0130950D01*
X0190300Y0130950D01*
X0205300Y0150950D01*
X0207419Y0145225D02*
X0213181Y0145225D01*
X0210800Y0146823D02*
X0209800Y0146823D01*
X0217419Y0145225D02*
X0223181Y0145225D01*
X0220800Y0146823D02*
X0219800Y0146823D01*
X0227419Y0145225D02*
X0233181Y0145225D01*
X0230800Y0146823D02*
X0229800Y0146823D01*
X0237419Y0145225D02*
X0243181Y0145225D01*
X0240800Y0146823D02*
X0239800Y0146823D01*
X0240061Y0154816D02*
X0240539Y0154816D01*
X0242100Y0156415D02*
X0238048Y0156415D01*
X0248500Y0156415D02*
X0252552Y0156415D01*
X0250539Y0154816D02*
X0250061Y0154816D01*
X0258048Y0156415D02*
X0262552Y0156415D01*
X0260539Y0154816D02*
X0260061Y0154816D01*
X0275300Y0130950D02*
X0235300Y0090950D01*
X0239057Y0086080D02*
X0241543Y0086080D01*
X0231543Y0086080D02*
X0229057Y0086080D01*
X0221543Y0086080D02*
X0219057Y0086080D01*
X0216465Y0084482D02*
X0188500Y0084482D01*
X0189057Y0086080D02*
X0191543Y0086080D01*
X0182100Y0085673D02*
X0182100Y0081227D01*
X0181845Y0081121D01*
X0180300Y0079577D01*
X0178755Y0081121D01*
X0178500Y0081227D01*
X0178500Y0085673D01*
X0178755Y0085779D01*
X0180300Y0087323D01*
X0181845Y0085779D01*
X0182100Y0085673D01*
X0181543Y0086080D02*
X0179057Y0086080D01*
X0178500Y0084482D02*
X0182100Y0084482D01*
X0182100Y0082883D02*
X0178500Y0082883D01*
X0178500Y0081284D02*
X0182100Y0081284D01*
X0180409Y0079686D02*
X0180191Y0079686D01*
X0175300Y0075950D02*
X0175300Y0070950D01*
X0170300Y0065950D01*
X0160300Y0065950D01*
X0150300Y0075950D01*
X0100300Y0075950D01*
X0082500Y0093750D01*
X0065300Y0093750D01*
X0069417Y0097270D02*
X0069900Y0097270D01*
X0069900Y0098868D02*
X0067819Y0098868D01*
X0068753Y0100467D02*
X0069900Y0100467D01*
X0075300Y0099250D02*
X0082000Y0099250D01*
X0100300Y0080950D01*
X0165300Y0080950D01*
X0165300Y0075950D01*
X0165300Y0080950D02*
X0165300Y0090950D01*
X0169206Y0095671D02*
X0171394Y0095671D01*
X0175300Y0090950D02*
X0175300Y0075950D01*
X0170409Y0079686D02*
X0170191Y0079686D01*
X0170300Y0079577D02*
X0168755Y0081121D01*
X0168500Y0081227D01*
X0168500Y0085673D01*
X0168755Y0085779D01*
X0170300Y0087323D01*
X0171845Y0085779D01*
X0172100Y0085673D01*
X0172100Y0081227D01*
X0171845Y0081121D01*
X0170300Y0079577D01*
X0168500Y0081284D02*
X0172100Y0081284D01*
X0172100Y0082883D02*
X0168500Y0082883D01*
X0168500Y0084482D02*
X0172100Y0084482D01*
X0171543Y0086080D02*
X0169057Y0086080D01*
X0159443Y0077750D02*
X0159200Y0077163D01*
X0159200Y0074737D01*
X0160129Y0072495D01*
X0161845Y0070779D01*
X0164087Y0069850D01*
X0166513Y0069850D01*
X0168755Y0070779D01*
X0170300Y0072323D01*
X0171224Y0071399D01*
X0168975Y0069150D01*
X0161625Y0069150D01*
X0153025Y0077750D01*
X0159443Y0077750D01*
X0159200Y0076489D02*
X0154287Y0076489D01*
X0155885Y0074890D02*
X0159200Y0074890D01*
X0159798Y0073292D02*
X0157484Y0073292D01*
X0159082Y0071693D02*
X0160930Y0071693D01*
X0160681Y0070095D02*
X0163495Y0070095D01*
X0167105Y0070095D02*
X0169919Y0070095D01*
X0169670Y0071693D02*
X0170930Y0071693D01*
X0143586Y0055708D02*
X0225533Y0055708D01*
X0255100Y0086080D02*
X0255500Y0086080D01*
X0255500Y0087679D02*
X0255100Y0087679D01*
X0255100Y0089277D02*
X0255500Y0089277D01*
X0215300Y0090950D02*
X0215300Y0095950D01*
X0185300Y0125950D01*
X0130300Y0125950D01*
X0120300Y0120950D01*
X0110300Y0120950D01*
X0110300Y0105950D01*
X0104200Y0105262D02*
X0095513Y0105262D01*
X0093915Y0106861D02*
X0104200Y0106861D01*
X0104200Y0108459D02*
X0092316Y0108459D01*
X0090718Y0110058D02*
X0104200Y0110058D01*
X0104200Y0110127D02*
X0104200Y0101773D01*
X0104565Y0100891D01*
X0105241Y0100215D01*
X0106123Y0099850D01*
X0113672Y0099850D01*
X0113322Y0099150D01*
X0101625Y0099150D01*
X0083025Y0117750D01*
X0107100Y0117750D01*
X0107100Y0112050D01*
X0106123Y0112050D01*
X0105241Y0111685D01*
X0104565Y0111009D01*
X0104200Y0110127D01*
X0105212Y0111656D02*
X0089119Y0111656D01*
X0087521Y0113255D02*
X0107100Y0113255D01*
X0107100Y0114853D02*
X0085922Y0114853D01*
X0084324Y0116452D02*
X0107100Y0116452D01*
X0110300Y0120950D02*
X0075300Y0120950D01*
X0069900Y0121247D02*
X0067834Y0121247D01*
X0067537Y0120950D02*
X0069737Y0123150D01*
X0069900Y0123150D01*
X0069900Y0118750D01*
X0069737Y0118750D01*
X0067537Y0120950D01*
X0068838Y0119649D02*
X0069900Y0119649D01*
X0069900Y0122846D02*
X0069433Y0122846D01*
X0065300Y0126350D02*
X0115700Y0126350D01*
X0119366Y0124150D02*
X0119849Y0124302D01*
X0119545Y0124150D01*
X0119366Y0124150D01*
X0124853Y0119649D02*
X0129473Y0119649D01*
X0128050Y0121247D02*
X0131072Y0121247D01*
X0131055Y0122750D02*
X0132575Y0122750D01*
X0121769Y0111944D01*
X0121513Y0112050D01*
X0119087Y0112050D01*
X0116845Y0111121D01*
X0116239Y0110516D01*
X0116035Y0111009D01*
X0115359Y0111685D01*
X0114477Y0112050D01*
X0113500Y0112050D01*
X0113500Y0117750D01*
X0119781Y0117750D01*
X0119892Y0117713D01*
X0120414Y0117750D01*
X0120937Y0117750D01*
X0121045Y0117795D01*
X0121162Y0117803D01*
X0121629Y0118037D01*
X0122113Y0118237D01*
X0122196Y0118320D01*
X0131055Y0122750D01*
X0127875Y0118050D02*
X0121661Y0118050D01*
X0124678Y0114853D02*
X0113500Y0114853D01*
X0113500Y0113255D02*
X0123079Y0113255D01*
X0118136Y0111656D02*
X0115388Y0111656D01*
X0113500Y0116452D02*
X0126276Y0116452D01*
X0130925Y0112050D02*
X0136625Y0117750D01*
X0137575Y0117750D01*
X0131769Y0111944D01*
X0131513Y0112050D01*
X0130925Y0112050D01*
X0132130Y0113255D02*
X0133079Y0113255D01*
X0133729Y0114853D02*
X0134678Y0114853D01*
X0135327Y0116452D02*
X0136276Y0116452D01*
X0143500Y0095671D02*
X0151394Y0095671D01*
X0159206Y0095671D02*
X0161394Y0095671D01*
X0179206Y0095671D02*
X0181394Y0095671D01*
X0197316Y0108459D02*
X0198265Y0108459D01*
X0198915Y0106861D02*
X0199864Y0106861D01*
X0200513Y0105262D02*
X0201462Y0105262D01*
X0202112Y0103664D02*
X0203061Y0103664D01*
X0203710Y0102065D02*
X0204659Y0102065D01*
X0205309Y0100467D02*
X0206258Y0100467D01*
X0206907Y0098868D02*
X0207856Y0098868D01*
X0207113Y0098663D02*
X0183025Y0122750D01*
X0183975Y0122750D01*
X0211224Y0095501D01*
X0210300Y0094577D01*
X0208755Y0096121D01*
X0208500Y0096227D01*
X0208500Y0096587D01*
X0208013Y0097763D01*
X0207113Y0098663D01*
X0208217Y0097270D02*
X0209455Y0097270D01*
X0209206Y0095671D02*
X0211053Y0095671D01*
X0196667Y0110058D02*
X0195718Y0110058D01*
X0195068Y0111656D02*
X0194119Y0111656D01*
X0193470Y0113255D02*
X0192521Y0113255D01*
X0191871Y0114853D02*
X0190922Y0114853D01*
X0190273Y0116452D02*
X0189324Y0116452D01*
X0188674Y0118050D02*
X0187725Y0118050D01*
X0187076Y0119649D02*
X0186127Y0119649D01*
X0185477Y0121247D02*
X0184528Y0121247D01*
X0188700Y0134150D02*
X0178018Y0134150D01*
X0178136Y0134436D01*
X0185079Y0144850D01*
X0186513Y0144850D01*
X0188755Y0145779D01*
X0190300Y0147323D01*
X0191845Y0145779D01*
X0194087Y0144850D01*
X0196513Y0144850D01*
X0196820Y0144977D01*
X0188700Y0134150D01*
X0189813Y0135634D02*
X0178935Y0135634D01*
X0180001Y0137232D02*
X0191012Y0137232D01*
X0192211Y0138831D02*
X0181066Y0138831D01*
X0182132Y0140429D02*
X0193410Y0140429D01*
X0194608Y0142028D02*
X0183198Y0142028D01*
X0184264Y0143626D02*
X0195807Y0143626D01*
X0193181Y0145225D02*
X0187419Y0145225D01*
X0189800Y0146823D02*
X0190800Y0146823D01*
X0180539Y0154816D02*
X0180061Y0154816D01*
X0177637Y0145225D02*
X0177419Y0145225D01*
X0170800Y0146823D02*
X0169800Y0146823D01*
X0162552Y0156415D02*
X0158048Y0156415D01*
X0160061Y0154816D02*
X0160539Y0154816D01*
X0184280Y0175597D02*
X0184399Y0175597D01*
X0208048Y0156415D02*
X0212100Y0156415D01*
X0210539Y0154816D02*
X0210061Y0154816D01*
X0240098Y0194779D02*
X0240502Y0194779D01*
X0242463Y0196377D02*
X0238137Y0196377D01*
X0130500Y0189983D02*
X0130100Y0189983D01*
X0130100Y0188385D02*
X0130500Y0188385D01*
X0130500Y0186786D02*
X0130100Y0186786D01*
X0130100Y0185750D02*
X0125800Y0185750D01*
X0120500Y0185750D01*
X0120500Y0180450D01*
X0120733Y0180450D01*
X0121588Y0180585D01*
X0122411Y0180853D01*
X0123183Y0181246D01*
X0123883Y0181755D01*
X0124495Y0182367D01*
X0125004Y0183067D01*
X0125300Y0183648D01*
X0125596Y0183067D01*
X0126105Y0182367D01*
X0126717Y0181755D01*
X0127417Y0181246D01*
X0128189Y0180853D01*
X0129012Y0180585D01*
X0129867Y0180450D01*
X0130100Y0180450D01*
X0130100Y0185750D01*
X0130100Y0185188D02*
X0130500Y0185188D01*
X0130500Y0183589D02*
X0130100Y0183589D01*
X0130100Y0181991D02*
X0130500Y0181991D01*
X0126481Y0181991D02*
X0124119Y0181991D01*
X0125270Y0183589D02*
X0125330Y0183589D01*
X0120500Y0183589D02*
X0120100Y0183589D01*
X0120100Y0181991D02*
X0120500Y0181991D01*
X0120500Y0185188D02*
X0120100Y0185188D01*
X0120100Y0186786D02*
X0120500Y0186786D01*
X0120500Y0188385D02*
X0120100Y0188385D01*
X0120100Y0189983D02*
X0120500Y0189983D01*
X0124045Y0189983D02*
X0126555Y0189983D01*
X0125368Y0188385D02*
X0125232Y0188385D01*
X0095175Y0151619D02*
X0085494Y0151619D01*
X0083896Y0150020D02*
X0094200Y0150020D01*
X0100300Y0145950D02*
X0085300Y0145950D01*
X0082000Y0142650D01*
X0075300Y0142650D01*
X0069900Y0142028D02*
X0068159Y0142028D01*
X0068413Y0143626D02*
X0069900Y0143626D01*
X0080699Y0146823D02*
X0081648Y0146823D01*
X0082297Y0148422D02*
X0083246Y0148422D01*
X0086625Y0142750D02*
X0084325Y0140450D01*
X0095006Y0140450D01*
X0094565Y0140891D01*
X0094200Y0141773D01*
X0094200Y0142750D01*
X0086625Y0142750D01*
X0085903Y0142028D02*
X0094200Y0142028D01*
X0108927Y0135050D02*
X0109296Y0135412D01*
X0109302Y0135426D01*
X0109313Y0135437D01*
X0109551Y0136012D01*
X0111183Y0139850D01*
X0111513Y0139850D01*
X0112934Y0140439D01*
X0109457Y0135050D01*
X0108927Y0135050D01*
X0109394Y0135634D02*
X0109834Y0135634D01*
X0110070Y0137232D02*
X0110865Y0137232D01*
X0110750Y0138831D02*
X0111897Y0138831D01*
X0112912Y0140429D02*
X0112928Y0140429D01*
X0080700Y0115550D02*
X0100300Y0095950D01*
X0115300Y0095950D01*
X0104989Y0100467D02*
X0100309Y0100467D01*
X0098710Y0102065D02*
X0104200Y0102065D01*
X0104200Y0103664D02*
X0097112Y0103664D01*
X0080700Y0115550D02*
X0065300Y0115550D01*
X0069043Y0111656D02*
X0069900Y0111656D01*
X0069900Y0108459D02*
X0069128Y0108459D01*
X0068464Y0089277D02*
X0069900Y0089277D01*
X0069900Y0087679D02*
X0067360Y0087679D01*
X0068958Y0086080D02*
X0069933Y0086080D01*
X0070100Y0084482D02*
X0071532Y0084482D01*
X0070100Y0082750D02*
X0070100Y0080962D01*
X0067288Y0078150D01*
X0065500Y0078150D01*
X0065500Y0082750D01*
X0070100Y0082750D01*
X0070100Y0081284D02*
X0072346Y0081284D01*
X0070748Y0079686D02*
X0068824Y0079686D01*
X0070500Y0078087D02*
X0055100Y0078087D01*
X0055100Y0076489D02*
X0062951Y0076489D01*
X0063312Y0076850D02*
X0060500Y0074038D01*
X0060500Y0072250D01*
X0065100Y0072250D01*
X0065100Y0076850D01*
X0063312Y0076850D01*
X0065100Y0076489D02*
X0065500Y0076489D01*
X0065500Y0076850D02*
X0065500Y0072250D01*
X0065100Y0072250D01*
X0065100Y0071850D01*
X0060500Y0071850D01*
X0060500Y0070062D01*
X0063312Y0067250D01*
X0065100Y0067250D01*
X0065100Y0071850D01*
X0065500Y0071850D01*
X0065500Y0072250D01*
X0070100Y0072250D01*
X0070100Y0074038D01*
X0067288Y0076850D01*
X0065500Y0076850D01*
X0065500Y0074890D02*
X0065100Y0074890D01*
X0065100Y0073292D02*
X0065500Y0073292D01*
X0065500Y0071850D02*
X0070100Y0071850D01*
X0070100Y0070062D01*
X0067288Y0067250D01*
X0065500Y0067250D01*
X0065500Y0071850D01*
X0065500Y0071693D02*
X0065100Y0071693D01*
X0065100Y0070095D02*
X0065500Y0070095D01*
X0065500Y0068496D02*
X0065100Y0068496D01*
X0062065Y0068496D02*
X0055100Y0068496D01*
X0055100Y0066898D02*
X0069900Y0066898D01*
X0069900Y0068496D02*
X0068535Y0068496D01*
X0070100Y0070095D02*
X0071108Y0070095D01*
X0070100Y0071693D02*
X0072707Y0071693D01*
X0072670Y0073292D02*
X0070100Y0073292D01*
X0069248Y0074890D02*
X0071071Y0074890D01*
X0070500Y0076489D02*
X0067649Y0076489D01*
X0065500Y0079686D02*
X0065100Y0079686D01*
X0065100Y0081284D02*
X0065500Y0081284D01*
X0065100Y0082883D02*
X0055100Y0082883D01*
X0055100Y0081284D02*
X0060500Y0081284D01*
X0061776Y0079686D02*
X0055100Y0079686D01*
X0055100Y0084482D02*
X0060500Y0084482D01*
X0061642Y0086080D02*
X0055100Y0086080D01*
X0055100Y0074890D02*
X0061352Y0074890D01*
X0060500Y0073292D02*
X0055100Y0073292D01*
X0055100Y0071693D02*
X0060500Y0071693D01*
X0060500Y0070095D02*
X0055100Y0070095D01*
X0055100Y0065299D02*
X0061813Y0065299D01*
X0060214Y0063701D02*
X0055100Y0063701D01*
X0055100Y0062102D02*
X0059900Y0062102D01*
X0059900Y0060504D02*
X0055100Y0060504D01*
X0055100Y0058905D02*
X0059908Y0058905D01*
X0061506Y0057307D02*
X0055100Y0057307D01*
X0055100Y0055708D02*
X0069900Y0055708D01*
X0069900Y0054110D02*
X0055100Y0054110D01*
X0055100Y0052511D02*
X0070902Y0052511D01*
X0072500Y0050913D02*
X0055100Y0050913D01*
X0065300Y0061150D02*
X0065300Y0061650D01*
X0074600Y0061650D01*
X0075300Y0060950D01*
X0075300Y0055750D01*
X0080300Y0050950D01*
X0140300Y0050950D01*
X0126165Y0057307D02*
X0124435Y0057307D01*
X0118634Y0055708D02*
X0114930Y0055708D01*
X0115800Y0057307D02*
X0116165Y0057307D01*
X0125071Y0063701D02*
X0125529Y0063701D01*
X0126929Y0065299D02*
X0123671Y0065299D01*
X0100300Y0070950D02*
X0082900Y0088350D01*
X0075300Y0088350D01*
X0075100Y0081284D02*
X0075500Y0081284D01*
X0075500Y0079686D02*
X0075100Y0079686D01*
X0075100Y0078087D02*
X0075500Y0078087D01*
X0075500Y0076489D02*
X0075100Y0076489D01*
X0075100Y0074890D02*
X0075500Y0074890D01*
X0075500Y0073292D02*
X0075100Y0073292D01*
X0075300Y0066650D02*
X0075300Y0060950D01*
X0069900Y0057307D02*
X0069094Y0057307D01*
X0068787Y0065299D02*
X0069900Y0065299D01*
X0065199Y0039723D02*
X0055100Y0039723D01*
X0055100Y0038125D02*
X0062538Y0038125D01*
X0060940Y0036526D02*
X0055100Y0036526D01*
X0055100Y0034928D02*
X0059779Y0034928D01*
X0058856Y0033329D02*
X0055100Y0033329D01*
X0055100Y0031731D02*
X0058368Y0031731D01*
X0057940Y0030132D02*
X0055100Y0030132D01*
X0055100Y0028534D02*
X0057900Y0028534D01*
X0057900Y0026935D02*
X0055100Y0026935D01*
X0055100Y0025337D02*
X0058270Y0025337D01*
X0058698Y0023738D02*
X0055100Y0023738D01*
X0055100Y0022140D02*
X0059567Y0022140D01*
X0060573Y0020541D02*
X0055100Y0020541D01*
X0055100Y0018943D02*
X0062171Y0018943D01*
X0064563Y0017344D02*
X0055100Y0017344D01*
X0289869Y0046918D02*
X0289869Y0046918D01*
X0291004Y0046117D02*
X0294201Y0046117D01*
X0294201Y0044519D02*
X0293268Y0044519D01*
D16*
X0087800Y0028450D02*
X0057800Y0028450D01*
X0070300Y0018450D02*
X0070300Y0043450D01*
X0070300Y0198450D02*
X0070300Y0223450D01*
X0057800Y0213450D02*
X0087800Y0213450D01*
M02*
