%
M48
M72
T01C0.04000
T02C0.13000
T03C0.17717
%
T01
X75300Y55750
X65300Y61150
X75300Y66650
X65300Y72050
X75300Y77450
X65300Y82950
X75300Y88350
X65300Y93750
X75300Y99250
X65300Y104650
X75300Y110050
X65300Y115550
X75300Y120950
X65300Y126350
X75300Y131850
X65300Y137250
X75300Y142650
X65300Y148150
X75300Y153550
X65300Y158950
X75300Y164450
X65300Y169850
X75300Y175250
X65300Y180750
X75300Y186150
X100300Y185950
X110300Y185950
X120300Y185950
X130300Y185950
X155300Y150950
X165300Y150950
X175300Y150950
X185300Y150950
X195300Y150950
X205300Y150950
X215300Y150950
X225300Y150950
X235300Y150950
X245300Y150950
X255300Y150950
X265300Y150950
X245300Y170950
X235300Y170950
X225300Y170950
X215300Y170950
X215300Y190950
X205300Y190950
X195300Y190950
X185300Y190950
X180300Y170950
X190300Y170950
X225300Y190950
X235300Y190950
X245300Y190950
X255300Y190950
X140300Y105950
X130300Y105950
X120300Y105950
X110300Y105950
X155300Y90950
X165300Y90950
X175300Y90950
X185300Y90950
X195300Y90950
X205300Y90950
X215300Y90950
X225300Y90950
X235300Y90950
X245300Y90950
X255300Y90950
X265300Y90950
X185300Y75950
X175300Y75950
X165300Y75950
X140300Y60950
X130300Y60950
X120300Y60950
X110300Y60950
X110300Y145950
X100300Y145950
X120300Y145950
X130300Y145950
T02
X70300Y28350
X70300Y213550
T03
X280300Y213450
X280300Y28450
M30
